<?xml version="1.0" encoding="UTF-8" standalone="no"?>
<!-- Created with Vectornator (http://vectornator.io/) -->

<svg
   height="100%"
   stroke-miterlimit="10"
   style="fill-rule:nonzero;clip-rule:evenodd;stroke-linecap:round;stroke-linejoin:round;"
   version="1.1"
   viewBox="0 0 2384.24 3370.82"
   width="100%"
   xml:space="preserve"
   id="svg65"
   sodipodi:docname="Dorji Edit.svg"
   inkscape:version="1.1 (c4e8f9e, 2021-05-24)"
   xmlns:inkscape="http://www.inkscape.org/namespaces/inkscape"
   xmlns:sodipodi="http://sodipodi.sourceforge.net/DTD/sodipodi-0.dtd"
   xmlns="http://www.w3.org/2000/svg"
   xmlns:svg="http://www.w3.org/2000/svg"
   xmlns:vectornator="http://vectornator.io"><sodipodi:namedview
   id="namedview67"
   pagecolor="#505050"
   bordercolor="#eeeeee"
   borderopacity="1"
   inkscape:pageshadow="0"
   inkscape:pageopacity="0"
   inkscape:pagecheckerboard="0"
   showgrid="true"
   inkscape:zoom="0.13027768"
   inkscape:cx="1408.5299"
   inkscape:cy="1581.2379"
   inkscape:window-width="1312"
   inkscape:window-height="776"
   inkscape:window-x="0"
   inkscape:window-y="25"
   inkscape:window-maximized="0"
   inkscape:current-layer="svg65" />
<defs
   id="defs60">
<radialGradient
   cx="447.156"
   cy="354.031"
   gradientTransform="matrix(10.5981 0 0 10.5981 -3544.37 -2155.29)"
   gradientUnits="userSpaceOnUse"
   id="RadialGradient"
   r="107">
<stop
   offset="1"
   stop-color="#698f63"
   stop-opacity="0.6"
   id="stop55" />
<stop
   offset="1"
   stop-color="#000000"
   id="stop57" />
</radialGradient>
</defs>
<g
   id="Layer-1"
   vectornator:layerName="Layer 1">
<path
   d="M1186.7 462.775C1176.1 462.775 1166.39 466.307 1157.56 473.373C1139.89 487.504 1131.06 506.933 1131.06 531.662C1131.06 544.027 1131.06 556.391 1131.06 568.756C1125.76 566.99 1120.46 565.223 1115.16 563.457C1104.57 559.924 1076.3 565.223 1030.38 579.354C984.454 593.485 945.594 614.681 913.8 642.943C882.006 671.205 864.342 697.7 860.809 722.429C857.277 747.158 844.912 775.419 823.716 807.214C802.52 839.008 795.454 869.036 802.52 897.298C809.585 925.56 804.286 950.289 786.622 971.485C768.959 992.681 760.127 1015.64 760.127 1040.37C760.127 1065.1 770.725 1089.83 791.921 1114.56C813.118 1139.29 837.847 1149.89 866.108 1146.35C894.37 1142.82 912.034 1132.22 919.099 1114.56C922.632 1105.73 926.164 1096.9 929.697 1088.06C919.099 1077.47 908.501 1066.87 897.903 1056.27C896.136 1068.63 894.37 1081 892.604 1093.36C889.071 1118.09 876.707 1130.46 855.51 1130.46C834.314 1130.46 814.884 1118.09 797.221 1093.36C779.557 1068.63 772.492 1045.67 776.024 1024.48C779.557 1003.28 790.155 983.849 807.819 966.186C825.482 948.522 844.912 944.99 866.108 955.588C887.305 966.186 901.435 967.952 908.501 960.887C912.034 957.354 915.566 953.821 919.099 950.289C901.435 943.223 883.772 936.158 866.108 929.092C830.781 914.962 813.118 895.532 813.118 870.803C813.118 846.074 820.183 823.111 834.314 801.915C848.445 780.719 869.641 773.653 897.903 780.719C912.034 784.251 926.164 787.784 940.295 791.317C936.763 784.251 933.23 777.186 929.697 770.12C922.632 755.99 912.034 748.924 897.903 748.924C890.837 748.924 883.772 748.924 876.707 748.924C878.473 738.326 880.239 727.728 882.006 717.13C885.538 695.933 896.136 676.504 913.8 658.84C931.464 641.176 963.258 623.513 1009.18 605.849C1055.11 588.186 1086.9 579.354 1104.57 579.354C1113.4 579.354 1122.23 579.354 1131.06 579.354C1131.06 597.018 1131.06 614.681 1131.06 632.345C1131.06 667.672 1124 687.102 1109.87 690.634C1095.73 694.167 1076.3 708.298 1051.58 733.027C1026.85 757.756 1009.18 782.485 998.585 807.214C987.987 831.943 982.688 858.438 982.688 886.7C982.688 914.962 993.286 957.354 1014.48 1013.88C1035.68 1070.4 1033.91 1103.96 1009.18 1114.56C984.454 1125.16 959.725 1118.09 934.996 1093.36C933.23 1091.6 931.464 1089.83 929.697 1088.06C934.996 1098.66 940.295 1109.26 945.594 1119.86C956.192 1141.05 954.426 1158.72 940.295 1172.85C933.23 1179.91 926.164 1186.98 919.099 1194.05C924.398 1197.58 929.697 1201.11 934.996 1204.64C945.594 1211.71 956.192 1229.37 966.791 1257.63C977.389 1285.9 995.052 1310.63 1019.78 1331.82C1032.15 1342.42 1044.51 1353.02 1056.87 1363.62C1039.21 1379.51 1021.55 1395.41 1003.88 1411.31C986.221 1427.2 968.557 1443.1 950.893 1459C942.062 1446.63 933.23 1434.27 924.398 1421.91C906.735 1397.18 883.772 1379.51 855.51 1368.91C827.249 1358.32 809.585 1347.72 802.52 1337.12C798.987 1331.82 795.454 1326.52 791.921 1321.22C784.856 1328.29 777.791 1335.35 770.725 1342.42C756.594 1356.55 738.931 1358.32 717.735 1347.72C707.136 1342.42 696.538 1337.12 685.94 1331.82C696.538 1324.76 707.136 1317.69 717.735 1310.63C738.931 1296.49 749.529 1278.83 749.529 1257.63C749.529 1236.44 744.23 1218.77 733.632 1204.64C723.034 1190.51 698.305 1179.91 659.445 1172.85C620.585 1165.78 592.323 1171.08 574.66 1188.75C556.996 1206.41 532.267 1211.71 500.473 1204.64C468.678 1197.58 442.183 1197.58 420.987 1204.64C399.791 1211.71 383.893 1222.31 373.295 1236.44C362.697 1250.57 345.034 1259.4 320.305 1262.93C295.576 1266.47 270.847 1280.6 246.118 1305.33C221.389 1330.05 200.192 1368.91 182.529 1421.91C164.865 1474.9 157.8 1506.69 161.333 1517.29C163.099 1522.59 164.865 1527.89 166.632 1533.19C154.267 1533.19 141.903 1533.19 129.538 1533.19C104.809 1533.19 85.3794 1545.55 71.2485 1570.28C57.1177 1595.01 57.1181 1616.2 71.2485 1633.87C85.3794 1651.53 104.81 1660.36 129.538 1660.36C141.903 1660.36 154.267 1660.36 166.632 1660.36C164.865 1667.43 163.099 1674.49 161.333 1681.56C157.8 1695.69 163.099 1715.12 177.23 1739.85C191.361 1764.58 198.426 1785.77 198.426 1803.44C198.426 1821.1 210.791 1844.06 235.52 1872.33C260.249 1900.59 286.744 1918.25 315.006 1925.32C343.267 1932.38 362.697 1942.98 373.295 1957.11C383.893 1971.24 399.791 1981.84 420.987 1988.91C442.183 1995.97 466.912 1995.97 495.174 1988.91C523.435 1981.84 548.164 1987.14 569.361 2004.8C590.557 2022.47 613.52 2031.3 638.249 2031.3C662.978 2031.3 687.706 2020.7 712.435 1999.5C737.164 1978.31 747.763 1953.58 744.23 1925.32C740.697 1897.05 730.099 1879.39 712.435 1872.33C703.604 1868.79 694.772 1865.26 685.94 1861.73C696.538 1856.43 707.136 1851.13 717.735 1845.83C738.931 1835.23 758.361 1837 776.024 1851.13C784.856 1858.2 793.688 1865.26 802.52 1872.33C804.286 1867.03 806.052 1861.73 807.819 1856.43C811.351 1845.83 829.015 1833.47 860.809 1819.34C892.604 1805.2 917.333 1787.54 934.996 1766.34C943.828 1755.75 952.66 1745.15 961.492 1734.55C977.389 1752.21 993.286 1769.88 1009.18 1787.54C1025.08 1805.2 1040.98 1822.87 1056.87 1840.53C1046.28 1847.6 1035.68 1854.66 1025.08 1861.73C1003.88 1875.86 986.221 1898.82 972.09 1930.62C957.959 1962.41 945.594 1980.07 934.996 1983.61C929.697 1985.37 924.398 1987.14 919.099 1988.91C926.164 1997.74 933.23 2006.57 940.295 2015.4C954.426 2033.06 956.192 2052.49 945.594 2073.69C940.295 2084.29 934.996 2094.89 929.697 2105.48C922.632 2094.89 915.566 2084.29 908.501 2073.69C894.37 2052.49 876.707 2041.9 855.51 2041.9C834.314 2041.9 816.65 2047.2 802.52 2057.79C788.389 2068.39 777.791 2093.12 770.725 2131.98C763.66 2170.84 768.959 2200.87 786.622 2222.06C804.286 2243.26 809.585 2269.76 802.52 2301.55C795.454 2333.34 802.52 2363.37 823.716 2391.63C844.912 2419.9 859.043 2448.16 866.108 2476.42C873.174 2504.68 887.305 2529.41 908.501 2550.61C929.697 2571.8 966.791 2591.23 1019.78 2608.9C1072.77 2626.56 1104.57 2633.63 1115.16 2630.09C1120.46 2628.33 1125.76 2626.56 1131.06 2624.79C1131.06 2637.16 1131.06 2649.52 1131.06 2661.89C1131.06 2686.62 1143.43 2706.05 1168.16 2720.18C1192.88 2734.31 1214.08 2734.31 1231.74 2720.18C1249.41 2706.05 1258.24 2686.62 1258.24 2661.89C1258.24 2649.52 1258.24 2637.16 1258.24 2624.79C1263.54 2626.56 1268.84 2628.33 1274.14 2630.09C1284.73 2633.63 1302.4 2628.33 1327.13 2614.2C1351.86 2600.06 1374.82 2593 1396.01 2593C1417.21 2593 1441.94 2580.63 1470.2 2555.91C1498.46 2531.18 1516.13 2504.68 1523.19 2476.42C1530.26 2448.16 1542.62 2423.43 1560.29 2402.23C1577.95 2381.04 1585.01 2349.24 1581.48 2306.85C1577.95 2264.46 1585.01 2234.43 1602.68 2216.77C1620.34 2199.1 1629.17 2177.91 1629.17 2153.18C1629.17 2128.45 1620.34 2105.48 1602.68 2084.29C1585.01 2063.09 1563.82 2050.73 1539.09 2047.2C1514.36 2043.66 1496.7 2045.43 1486.1 2052.49C1475.5 2059.56 1470.2 2070.16 1470.2 2084.29C1470.2 2091.35 1470.2 2098.42 1470.2 2105.48C1466.67 2103.72 1463.14 2101.95 1459.6 2100.19C1452.54 2096.65 1445.47 2086.05 1438.41 2068.39C1431.34 2050.73 1433.11 2038.36 1443.71 2031.3C1454.3 2024.23 1459.6 2013.63 1459.6 1999.5C1459.6 1992.44 1459.6 1985.37 1459.6 1978.31C1456.07 1978.31 1452.54 1978.31 1449.01 1978.31C1441.94 1978.31 1431.34 1962.41 1417.21 1930.62C1403.08 1898.82 1385.42 1874.09 1364.22 1856.43C1353.62 1847.6 1343.02 1838.77 1332.43 1829.93C1350.09 1814.04 1367.75 1798.14 1385.42 1782.24C1403.08 1766.34 1420.74 1750.45 1438.41 1734.55C1445.47 1745.15 1452.54 1755.75 1459.6 1766.34C1473.73 1787.54 1496.7 1805.2 1528.49 1819.34C1560.29 1833.47 1576.18 1844.06 1576.18 1851.13C1576.18 1854.66 1576.18 1858.2 1576.18 1861.73C1583.25 1861.73 1590.31 1861.73 1597.38 1861.73C1611.51 1861.73 1622.11 1856.43 1629.17 1845.83C1636.24 1835.23 1650.37 1835.23 1671.57 1845.83C1682.16 1851.13 1692.76 1856.43 1703.36 1861.73C1701.59 1859.96 1699.83 1858.2 1698.06 1856.43C1673.33 1831.7 1666.27 1806.97 1676.87 1782.24C1687.46 1757.51 1721.02 1755.75 1777.55 1776.94C1834.07 1798.14 1874.7 1808.74 1899.43 1808.74C1924.16 1808.74 1950.65 1803.44 1978.91 1792.84C2007.17 1782.24 2035.44 1757.51 2063.7 1718.65C2091.96 1679.79 2123.75 1660.36 2159.08 1660.36C2176.74 1660.36 2194.41 1660.36 2212.07 1660.36C2212.07 1667.43 2212.07 1674.49 2212.07 1681.56C2212.07 1695.69 2203.24 1727.48 2185.58 1776.94C2167.91 1826.4 2150.25 1859.96 2132.59 1877.63C2114.92 1895.29 2095.49 1905.89 2074.3 1909.42C2053.1 1912.95 2040.73 1905.89 2037.2 1888.22C2033.67 1870.56 2026.6 1859.96 2016.01 1856.43C2010.71 1854.66 2005.41 1852.9 2000.11 1851.13C2003.64 1865.26 2007.17 1879.39 2010.71 1893.52C2017.77 1921.78 2010.71 1942.98 1989.51 1957.11C1968.31 1971.24 1945.35 1978.31 1920.62 1978.31C1895.89 1978.31 1880 1976.54 1872.93 1973.01C1865.87 1969.48 1860.57 1953.58 1857.03 1925.32C1853.5 1897.05 1846.44 1881.16 1835.84 1877.63C1830.54 1875.86 1825.24 1874.09 1819.94 1872.33C1825.24 1886.46 1830.54 1900.59 1835.84 1914.72C1846.44 1942.98 1842.9 1965.94 1825.24 1983.61C1807.58 2001.27 1786.38 2011.87 1761.65 2015.4C1736.92 2018.93 1713.96 2011.87 1692.76 1994.2C1671.57 1976.54 1660.97 1955.34 1660.97 1930.62C1660.97 1918.25 1660.97 1905.89 1660.97 1893.52C1673.33 1893.52 1685.7 1893.52 1698.06 1893.52C1710.43 1893.52 1722.79 1893.52 1735.16 1893.52C1724.56 1882.92 1713.96 1872.33 1703.36 1861.73C1692.76 1868.79 1682.16 1875.86 1671.57 1882.92C1650.37 1897.05 1639.77 1912.95 1639.77 1930.62C1639.77 1948.28 1648.6 1967.71 1666.27 1988.91C1683.93 2010.1 1708.66 2022.47 1740.45 2026C1772.25 2029.53 1796.98 2022.47 1814.64 2004.8C1832.3 1987.14 1857.03 1981.84 1888.83 1988.91C1920.62 1995.97 1952.42 1988.91 1984.21 1967.71C2016.01 1946.51 2046.03 1932.38 2074.3 1925.32C2102.56 1918.25 2125.52 1905.89 2143.18 1888.22C2160.85 1870.56 2178.51 1838.77 2196.17 1792.84C2213.84 1746.91 2222.67 1713.35 2222.67 1692.16C2222.67 1681.56 2222.67 1670.96 2222.67 1660.36C2235.03 1660.36 2247.4 1660.36 2259.76 1660.36C2284.49 1660.36 2303.92 1648 2318.05 1623.27C2332.18 1598.54 2332.18 1577.34 2318.05 1559.68C2303.92 1542.02 2284.49 1533.19 2259.76 1533.19C2247.4 1533.19 2235.03 1533.19 2222.67 1533.19C2222.67 1522.59 2222.67 1511.99 2222.67 1501.39C2222.67 1480.2 2215.6 1457.23 2201.47 1432.5C2187.34 1407.77 2182.04 1390.11 2185.58 1379.51C2189.11 1368.91 2178.51 1349.48 2153.78 1321.22C2129.05 1292.96 2102.56 1275.3 2074.3 1268.23C2046.03 1261.17 2016.01 1247.04 1984.21 1225.84C1952.42 1204.64 1920.62 1197.58 1888.83 1204.64C1857.03 1211.71 1832.3 1206.41 1814.64 1188.75C1796.98 1171.08 1775.78 1162.25 1751.05 1162.25C1726.32 1162.25 1701.59 1172.85 1676.87 1194.05C1652.14 1215.24 1639.77 1236.44 1639.77 1257.63C1639.77 1278.83 1645.07 1294.73 1655.67 1305.33C1666.27 1315.92 1678.63 1319.46 1692.76 1315.92C1699.83 1314.16 1706.89 1312.39 1713.96 1310.63C1710.43 1315.92 1706.89 1321.22 1703.36 1326.52C1696.3 1337.12 1683.93 1345.95 1666.27 1353.02C1648.6 1360.08 1636.24 1358.32 1629.17 1347.72C1622.11 1337.12 1611.51 1331.82 1597.38 1331.82C1590.31 1331.82 1583.25 1331.82 1576.18 1331.82C1576.18 1335.35 1576.18 1338.89 1576.18 1342.42C1576.18 1349.48 1560.29 1360.08 1528.49 1374.21C1496.7 1388.34 1471.97 1406.01 1454.3 1427.2C1445.47 1437.8 1436.64 1448.4 1427.81 1459C1411.91 1441.34 1396.01 1423.67 1380.12 1406.01C1364.22 1388.34 1348.32 1370.68 1332.43 1353.02C1343.02 1345.95 1353.62 1338.89 1364.22 1331.82C1385.42 1317.69 1403.08 1294.73 1417.21 1262.93C1431.34 1231.14 1441.94 1215.24 1449.01 1215.24C1452.54 1215.24 1456.07 1215.24 1459.6 1215.24C1459.6 1208.18 1459.6 1201.11 1459.6 1194.05C1459.6 1179.91 1454.3 1169.32 1443.71 1162.25C1433.11 1155.19 1433.11 1141.05 1443.71 1119.86C1449.01 1109.26 1454.3 1098.66 1459.6 1088.06C1466.67 1098.66 1473.73 1109.26 1480.8 1119.86C1494.93 1141.05 1510.83 1151.65 1528.49 1151.65C1546.16 1151.65 1565.59 1142.82 1586.78 1125.16C1607.98 1107.49 1620.34 1082.77 1623.87 1050.97C1627.41 1019.18 1620.34 994.448 1602.68 976.784C1585.01 959.12 1579.72 936.158 1586.78 907.896C1593.85 879.634 1583.25 833.709 1554.99 770.12C1526.73 706.532 1498.46 662.373 1470.2 637.644C1441.94 612.915 1399.55 595.251 1343.02 584.653C1286.5 574.055 1258.24 556.392 1258.24 531.662C1258.24 506.933 1245.87 487.504 1221.15 473.373C1208.78 466.307 1197.3 462.775 1186.7 462.775ZM1178.75 481.321C1187.59 481.321 1198.18 483.971 1210.55 489.27C1235.28 499.868 1245.87 545.793 1242.34 627.046C1238.81 708.298 1242.34 763.055 1252.94 791.317C1263.54 819.578 1261.77 853.139 1247.64 891.999C1233.51 930.859 1226.44 969.719 1226.44 1008.58C1226.44 1028.01 1226.44 1047.44 1226.44 1066.87C1215.85 1066.87 1205.25 1066.87 1194.65 1066.87C1173.45 1066.87 1161.09 1038.61 1157.56 982.083C1154.02 925.56 1146.96 886.7 1136.36 865.504C1125.76 844.307 1125.76 819.578 1136.36 791.317C1146.96 763.055 1150.49 708.298 1146.96 627.046C1143.43 545.793 1146.96 499.868 1157.56 489.27C1162.86 483.971 1169.92 481.321 1178.75 481.321ZM1258.24 579.354C1290.03 588.186 1321.83 597.018 1353.62 605.849C1417.21 623.513 1459.6 644.709 1480.8 669.438C1502 694.167 1512.59 713.597 1512.59 727.728C1512.59 741.859 1503.76 750.69 1486.1 754.223C1468.44 757.756 1457.84 764.821 1454.3 775.419C1452.54 780.719 1450.77 786.018 1449.01 791.317C1463.14 787.784 1477.27 784.251 1491.4 780.719C1519.66 773.653 1540.86 782.485 1554.99 807.214C1569.12 831.943 1576.18 854.905 1576.18 876.102C1576.18 897.298 1574.42 911.429 1570.88 918.494C1567.35 925.56 1551.45 930.859 1523.19 934.391C1494.93 937.924 1479.03 944.99 1475.5 955.588C1473.73 960.887 1471.97 966.186 1470.2 971.485C1484.33 966.186 1498.46 960.887 1512.59 955.588C1540.86 944.99 1562.05 946.756 1576.18 960.887C1590.31 975.018 1600.91 994.448 1607.98 1019.18C1615.04 1043.91 1609.74 1068.63 1592.08 1093.36C1574.42 1118.09 1553.22 1130.46 1528.49 1130.46C1516.13 1130.46 1503.76 1130.46 1491.4 1130.46C1491.4 1118.09 1491.4 1105.73 1491.4 1093.36C1491.4 1081 1491.4 1068.63 1491.4 1056.27C1484.33 1058.04 1477.27 1059.8 1470.2 1061.57C1456.07 1065.1 1443.71 1077.47 1433.11 1098.66C1422.51 1119.86 1404.85 1125.16 1380.12 1114.56C1355.39 1103.96 1351.86 1075.7 1369.52 1029.77C1387.18 983.849 1397.78 943.223 1401.31 907.896C1404.85 872.569 1401.31 840.775 1390.72 812.513C1380.12 784.251 1355.39 755.99 1316.53 727.728C1277.67 699.466 1258.24 667.672 1258.24 632.345C1258.24 614.681 1258.24 597.018 1258.24 579.354ZM1120.46 695.933C1124 699.466 1127.53 702.999 1131.06 706.532C1138.13 713.597 1134.59 734.793 1120.46 770.12C1106.33 805.448 1106.33 840.775 1120.46 876.102C1134.59 911.429 1141.66 953.821 1141.66 1003.28C1141.66 1052.74 1129.3 1079.23 1104.57 1082.77C1079.84 1086.3 1056.87 1063.34 1035.68 1013.88C1014.48 964.419 1003.88 920.261 1003.88 881.401C1003.88 842.541 1023.31 801.915 1062.17 759.522C1081.6 738.326 1101.03 717.13 1120.46 695.933ZM1247.64 695.933C1267.07 710.064 1286.5 724.195 1305.93 738.326C1344.79 766.588 1367.75 789.55 1374.82 807.214C1381.88 824.877 1385.42 853.139 1385.42 891.999C1385.42 930.859 1374.82 973.251 1353.62 1019.18C1332.43 1065.1 1309.46 1086.3 1284.73 1082.77C1260.01 1079.23 1247.64 1050.97 1247.64 997.98C1247.64 944.99 1254.71 900.831 1268.84 865.504C1282.97 830.176 1286.5 810.747 1279.44 807.214C1272.37 803.681 1265.3 784.251 1258.24 748.924C1254.71 731.261 1251.17 713.597 1247.64 695.933ZM1146.96 1097.34C1176.99 1094.69 1208.78 1095.13 1242.34 1098.66C1309.46 1105.73 1355.39 1116.33 1380.12 1130.46C1404.85 1144.59 1422.51 1160.48 1433.11 1178.15C1438.41 1186.98 1443.71 1195.81 1449.01 1204.64C1426.04 1190.51 1403.08 1176.38 1380.12 1162.25C1334.19 1133.99 1279.44 1118.09 1215.85 1114.56C1152.26 1111.03 1101.03 1116.33 1062.17 1130.46C1023.31 1144.59 993.286 1160.48 972.09 1178.15C961.492 1186.98 950.893 1195.81 940.295 1204.64C947.361 1194.05 954.426 1183.45 961.492 1172.85C975.622 1151.65 1009.18 1132.22 1062.17 1114.56C1088.67 1105.73 1116.93 1099.99 1146.96 1097.34ZM1194.65 1130.46C1215.85 1130.46 1231.74 1137.52 1242.34 1151.65C1252.94 1165.78 1260.01 1188.75 1263.54 1220.54C1267.07 1252.34 1265.3 1277.06 1258.24 1294.73C1251.17 1312.39 1229.98 1321.22 1194.65 1321.22C1159.32 1321.22 1139.89 1317.69 1136.36 1310.63C1132.83 1303.56 1129.3 1284.13 1125.76 1252.34C1122.23 1220.54 1127.53 1192.28 1141.66 1167.55C1155.79 1142.82 1173.45 1130.46 1194.65 1130.46ZM1343.02 1162.25C1357.16 1171.08 1371.29 1179.91 1385.42 1188.75C1399.55 1197.58 1413.68 1206.41 1427.81 1215.24C1415.44 1234.67 1403.08 1254.1 1390.72 1273.53C1365.99 1312.39 1344.79 1333.59 1327.13 1337.12C1309.46 1340.65 1295.33 1338.89 1284.73 1331.82C1274.14 1324.76 1272.37 1310.63 1279.44 1289.43C1286.5 1268.23 1288.27 1245.27 1284.73 1220.54C1282.97 1208.18 1281.2 1195.81 1279.44 1183.45C1288.27 1183.45 1297.1 1183.45 1305.93 1183.45C1323.59 1183.45 1334.19 1179.91 1337.73 1172.85C1339.49 1169.32 1341.26 1165.78 1343.02 1162.25ZM1029.05 1168.88C1040.54 1167.99 1053.34 1169.32 1067.47 1172.85C1095.73 1179.91 1108.1 1197.58 1104.57 1225.84C1101.03 1254.1 1102.8 1278.83 1109.87 1300.03C1113.4 1310.63 1116.93 1321.22 1120.46 1331.82C1109.87 1333.59 1099.27 1335.35 1088.67 1337.12C1067.47 1340.65 1044.51 1330.05 1019.78 1305.33C995.052 1280.6 980.921 1255.87 977.389 1231.14C973.856 1206.41 980.921 1188.75 998.585 1178.15C1007.42 1172.85 1017.57 1169.76 1029.05 1168.88ZM659.445 1178.15C677.108 1181.68 693.006 1190.51 707.136 1204.64C721.267 1218.77 726.566 1238.2 723.034 1262.93C719.501 1287.66 707.136 1300.03 685.94 1300.03C675.342 1300.03 664.744 1300.03 654.146 1300.03C655.912 1307.09 657.678 1314.16 659.445 1321.22C662.978 1335.35 675.342 1347.72 696.538 1358.32C717.735 1368.91 723.034 1386.58 712.435 1411.31C701.837 1436.04 668.277 1437.8 611.753 1416.61C555.23 1395.41 512.837 1384.81 484.576 1384.81C456.314 1384.81 424.52 1393.64 389.192 1411.31C353.865 1428.97 327.37 1453.7 309.706 1485.49C292.043 1517.29 265.548 1533.19 230.22 1533.19C212.557 1533.19 194.893 1533.19 177.23 1533.19C184.295 1504.92 191.361 1476.66 198.426 1448.4C212.557 1391.88 230.22 1351.25 251.417 1326.52C272.613 1301.79 293.809 1287.66 315.006 1284.13C325.604 1282.36 336.202 1280.6 346.8 1278.83C346.8 1285.9 346.8 1292.96 346.8 1300.03C346.8 1314.16 353.865 1326.52 367.996 1337.12C375.062 1342.42 382.127 1347.72 389.192 1353.02C385.66 1337.12 382.127 1321.22 378.594 1305.33C371.529 1273.53 380.361 1250.57 405.09 1236.44C429.819 1222.31 451.015 1215.24 468.678 1215.24C486.342 1215.24 498.706 1217.01 505.772 1220.54C512.837 1224.07 518.136 1238.2 521.669 1262.93C525.202 1287.66 534.034 1303.56 548.164 1310.63C555.23 1314.16 562.295 1317.69 569.361 1321.22C564.062 1308.86 558.763 1296.49 553.463 1284.13C542.865 1259.4 553.463 1234.67 585.258 1209.94C617.052 1185.21 641.781 1174.62 659.445 1178.15ZM1761.65 1178.15C1786.38 1181.68 1807.58 1192.28 1825.24 1209.94C1842.9 1227.61 1846.44 1250.57 1835.84 1278.83C1830.54 1292.96 1825.24 1307.09 1819.94 1321.22C1825.24 1319.46 1830.54 1317.69 1835.84 1315.92C1846.44 1312.39 1853.5 1296.49 1857.03 1268.23C1860.57 1239.97 1865.87 1224.07 1872.93 1220.54C1880 1217.01 1894.13 1215.24 1915.32 1215.24C1936.52 1215.24 1959.48 1222.31 1984.21 1236.44C2008.94 1250.57 2017.77 1273.53 2010.71 1305.33C2007.17 1321.22 2003.64 1337.12 2000.11 1353.02C2005.41 1349.48 2010.71 1345.95 2016.01 1342.42C2026.6 1335.35 2033.67 1322.99 2037.2 1305.33C2040.73 1287.66 2053.1 1280.6 2074.3 1284.13C2095.49 1287.66 2116.69 1301.79 2137.88 1326.52C2159.08 1351.25 2176.74 1391.88 2190.87 1448.4C2197.94 1476.66 2205.01 1504.92 2212.07 1533.19C2194.41 1533.19 2176.74 1533.19 2159.08 1533.19C2123.75 1533.19 2091.96 1513.76 2063.7 1474.9C2035.44 1436.04 2008.94 1411.31 1984.21 1400.71C1959.48 1390.11 1932.99 1384.81 1904.73 1384.81C1876.46 1384.81 1834.07 1395.41 1777.55 1416.61C1721.02 1437.8 1687.46 1436.04 1676.87 1411.31C1666.27 1386.58 1673.33 1361.85 1698.06 1337.12C1710.43 1324.76 1722.79 1312.39 1735.16 1300.03C1722.79 1300.03 1710.43 1300.03 1698.06 1300.03C1685.7 1300.03 1673.33 1300.03 1660.97 1300.03C1660.97 1287.66 1660.97 1275.3 1660.97 1262.93C1660.97 1238.2 1671.57 1217.01 1692.76 1199.34C1713.96 1181.68 1736.92 1174.62 1761.65 1178.15ZM1194.65 1342.42C1237.04 1342.42 1270.6 1347.72 1295.33 1358.32C1320.06 1368.91 1343.02 1383.05 1364.22 1400.71C1385.42 1418.37 1404.85 1444.87 1422.51 1480.2C1440.17 1515.52 1449.01 1554.38 1449.01 1596.77C1449.01 1639.17 1443.71 1672.73 1433.11 1697.46C1422.51 1722.19 1408.38 1745.15 1390.72 1766.34C1373.05 1787.54 1346.56 1806.97 1311.23 1824.63C1275.9 1842.3 1237.04 1851.13 1194.65 1851.13C1152.26 1851.13 1118.7 1845.83 1093.97 1835.23C1069.24 1824.63 1046.28 1810.5 1025.08 1792.84C1003.88 1775.18 984.454 1748.68 966.791 1713.35C949.127 1678.03 940.295 1639.17 940.295 1596.77C940.295 1554.38 945.594 1520.82 956.192 1496.09C966.791 1471.36 987.987 1443.1 1019.78 1411.31C1051.58 1379.51 1078.07 1360.08 1099.27 1353.02C1120.46 1345.95 1152.26 1342.42 1194.65 1342.42ZM1586.78 1342.42C1599.15 1353.02 1611.51 1363.62 1623.87 1374.21C1648.6 1395.41 1668.03 1428.97 1682.16 1474.9C1696.3 1520.82 1699.83 1577.34 1692.76 1644.47C1685.7 1711.59 1669.8 1762.81 1645.07 1798.14C1620.34 1833.47 1604.44 1849.36 1597.38 1845.83C1593.85 1844.06 1590.31 1842.3 1586.78 1840.53C1595.61 1831.7 1604.44 1822.87 1613.28 1814.04C1630.94 1796.37 1646.84 1766.34 1660.97 1723.95C1675.1 1681.56 1678.63 1625.04 1671.57 1554.38C1664.5 1483.73 1653.9 1436.04 1639.77 1411.31C1625.64 1386.58 1613.28 1372.45 1602.68 1368.91C1597.38 1367.15 1592.08 1365.38 1586.78 1363.62C1593.85 1374.21 1600.91 1384.81 1607.98 1395.41C1622.11 1416.61 1625.64 1441.34 1618.58 1469.6C1611.51 1497.86 1593.85 1510.22 1565.59 1506.69C1537.32 1503.16 1512.59 1504.92 1491.4 1511.99C1480.8 1515.52 1470.2 1519.05 1459.6 1522.59C1457.84 1517.29 1456.07 1511.99 1454.3 1506.69C1450.77 1496.09 1450.77 1481.96 1454.3 1464.3C1457.84 1446.63 1470.2 1428.97 1491.4 1411.31C1512.59 1393.64 1532.02 1383.05 1549.69 1379.51C1567.35 1375.98 1577.95 1368.91 1581.48 1358.32C1583.25 1353.02 1585.01 1347.72 1586.78 1342.42ZM791.921 1347.72C795.454 1349.48 798.987 1351.25 802.52 1353.02C795.454 1358.32 788.389 1363.62 781.323 1368.91C767.192 1379.51 751.295 1407.77 733.632 1453.7C715.968 1499.63 707.136 1547.32 707.136 1596.77C707.136 1646.23 715.968 1693.92 733.632 1739.85C751.295 1785.77 767.192 1815.8 781.323 1829.93C788.389 1837 795.454 1844.06 802.52 1851.13C790.155 1840.53 777.791 1829.93 765.426 1819.34C740.697 1798.14 721.267 1762.81 707.136 1713.35C693.006 1663.9 689.473 1607.37 696.538 1543.78C703.604 1480.2 719.501 1430.74 744.23 1395.41C768.959 1360.08 784.856 1344.19 791.921 1347.72ZM811.793 1387.46C825.041 1387.46 841.379 1391.88 860.809 1400.71C899.669 1418.37 922.632 1436.04 929.697 1453.7C936.763 1471.36 936.763 1487.26 929.697 1501.39C922.632 1515.52 910.267 1519.05 892.604 1511.99C874.94 1504.92 851.978 1503.16 823.716 1506.69C809.585 1508.46 795.454 1510.22 781.323 1511.99C783.09 1506.69 784.856 1501.39 786.622 1496.09C790.155 1485.49 786.622 1471.36 776.024 1453.7C765.426 1436.04 767.192 1418.37 781.323 1400.71C788.389 1391.88 798.545 1387.46 811.793 1387.46ZM484.576 1406.01C519.903 1406.01 560.529 1414.84 606.454 1432.5C652.379 1450.17 675.342 1473.13 675.342 1501.39C675.342 1515.52 675.342 1529.65 675.342 1543.78C652.379 1543.78 629.417 1543.78 606.454 1543.78C560.529 1543.78 519.903 1536.72 484.576 1522.59C449.249 1508.46 408.622 1506.69 362.697 1517.29C339.735 1522.59 316.772 1527.89 293.809 1533.19C307.94 1515.52 322.071 1497.86 336.202 1480.2C364.463 1444.87 387.426 1423.67 405.09 1416.61C422.753 1409.54 449.249 1406.01 484.576 1406.01ZM1855.71 1413.96C1879.55 1412.19 1904.73 1413.07 1931.22 1416.61C1984.21 1423.67 2024.84 1446.63 2053.1 1485.49C2067.23 1504.92 2081.36 1524.35 2095.49 1543.78C2069 1538.48 2042.5 1533.19 2016.01 1527.89C1963.01 1517.29 1924.16 1517.29 1899.43 1527.89C1874.7 1538.48 1837.6 1543.78 1788.15 1543.78C1738.69 1543.78 1712.19 1531.42 1708.66 1506.69C1705.13 1481.96 1706.89 1466.06 1713.96 1459C1721.02 1451.93 1745.75 1441.34 1788.15 1427.2C1809.34 1420.14 1831.86 1415.72 1855.71 1413.96ZM1531.14 1527.89C1545.27 1527.89 1562.05 1529.65 1581.48 1533.19C1620.34 1540.25 1643.3 1557.91 1650.37 1586.18C1657.44 1614.44 1648.6 1635.63 1623.87 1649.77C1599.15 1663.9 1567.35 1667.43 1528.49 1660.36C1489.63 1653.3 1470.2 1632.1 1470.2 1596.77C1470.2 1561.45 1479.03 1540.25 1496.7 1533.19C1505.53 1529.65 1517.01 1527.89 1531.14 1527.89ZM807.819 1530.54C823.716 1528.77 841.379 1529.65 860.809 1533.19C899.669 1540.25 919.099 1561.45 919.099 1596.77C919.099 1632.1 901.435 1653.3 866.108 1660.36C830.781 1667.43 798.987 1663.9 770.725 1649.77C742.464 1635.63 728.333 1617.97 728.333 1596.77C728.333 1575.58 740.697 1557.91 765.426 1543.78C777.791 1536.72 791.921 1532.3 807.819 1530.54ZM1960.37 1530.54C1972.73 1530.54 1985.98 1533.19 2000.11 1538.48C2028.37 1549.08 2083.13 1552.62 2164.38 1549.08C2245.63 1545.55 2291.56 1554.38 2302.16 1575.58C2312.75 1596.77 2310.99 1614.44 2296.86 1628.57C2282.73 1642.7 2236.8 1648 2159.08 1644.47C2081.36 1640.93 2031.9 1644.47 2010.71 1655.06C1989.51 1665.66 1964.78 1665.66 1936.52 1655.06C1908.26 1644.47 1864.1 1637.4 1804.04 1633.87C1774.01 1632.1 1743.99 1630.34 1713.96 1628.57C1719.26 1616.2 1724.56 1603.84 1729.86 1591.48C1740.45 1566.75 1770.48 1554.38 1819.94 1554.38C1869.4 1554.38 1904.73 1549.08 1925.92 1538.48C1936.52 1533.19 1948 1530.54 1960.37 1530.54ZM409.064 1533.19C432.91 1533.19 456.314 1536.72 479.277 1543.78C525.202 1557.91 567.594 1564.98 606.454 1564.98C625.884 1564.98 645.314 1564.98 664.744 1564.98C664.744 1575.58 664.744 1586.18 664.744 1596.77C664.744 1607.37 664.744 1617.97 664.744 1628.57C645.314 1628.57 625.884 1628.57 606.454 1628.57C567.594 1628.57 525.202 1635.63 479.277 1649.77C433.351 1663.9 389.192 1663.9 346.8 1649.77C304.407 1635.63 251.417 1630.34 187.828 1633.87C124.239 1637.4 88.9121 1633.87 81.8466 1623.27C74.7812 1612.67 74.7812 1598.54 81.8466 1580.88C88.9121 1563.21 120.706 1556.15 177.23 1559.68C233.753 1563.21 286.744 1557.91 336.202 1543.78C360.931 1536.72 385.218 1533.19 409.064 1533.19ZM293.809 1649.77C316.772 1656.83 339.735 1663.9 362.697 1670.96C408.622 1685.09 447.482 1685.09 479.277 1670.96C511.071 1656.83 551.697 1649.77 601.155 1649.77C650.613 1649.77 677.108 1662.13 680.641 1686.86C684.174 1711.59 661.211 1734.55 611.753 1755.75C562.295 1776.94 519.903 1787.54 484.576 1787.54C449.249 1787.54 412.155 1773.41 373.295 1745.15C334.435 1716.89 311.473 1693.92 304.407 1676.26C300.875 1667.43 297.342 1658.6 293.809 1649.77ZM1788.15 1649.77C1837.6 1649.77 1880 1656.83 1915.32 1670.96C1950.65 1685.09 1985.98 1685.09 2021.3 1670.96C2056.63 1656.83 2077.83 1653.3 2084.89 1660.36C2088.43 1663.9 2091.96 1667.43 2095.49 1670.96C2077.83 1688.63 2060.16 1706.29 2042.5 1723.95C2007.17 1759.28 1966.55 1778.71 1920.62 1782.24C1874.7 1785.77 1827.01 1776.94 1777.55 1755.75C1728.09 1734.55 1705.13 1711.59 1708.66 1686.86C1712.19 1662.13 1738.69 1649.77 1788.15 1649.77ZM177.23 1660.36C194.893 1660.36 212.557 1660.36 230.22 1660.36C265.548 1660.36 292.043 1676.26 309.706 1708.05C327.37 1739.85 353.865 1764.58 389.192 1782.24C424.52 1799.91 463.379 1806.97 505.772 1803.44C548.164 1799.91 590.557 1789.31 632.949 1771.64C654.146 1762.81 675.342 1753.98 696.538 1745.15C701.837 1757.51 707.136 1769.88 712.435 1782.24C723.034 1806.97 715.968 1826.4 691.239 1840.53C666.51 1854.66 654.146 1867.03 654.146 1877.63C654.146 1888.22 666.51 1895.29 691.239 1898.82C715.968 1902.35 728.333 1914.72 728.333 1935.91C728.333 1957.11 714.202 1976.54 685.94 1994.2C657.678 2011.87 632.949 2017.17 611.753 2010.1C590.557 2003.04 572.893 1990.67 558.763 1973.01C544.632 1955.34 542.865 1937.68 553.463 1920.02C564.062 1902.35 565.828 1889.99 558.763 1882.92C555.23 1879.39 551.697 1875.86 548.164 1872.33C542.865 1879.39 537.566 1886.46 532.267 1893.52C521.669 1907.65 516.37 1923.55 516.37 1941.21C516.37 1950.05 516.37 1958.88 516.37 1967.71C498.706 1967.71 481.043 1967.71 463.379 1967.71C428.052 1967.71 403.323 1962.41 389.192 1951.81C375.062 1941.21 371.529 1920.02 378.594 1888.22C382.127 1872.33 385.66 1856.43 389.192 1840.53C382.127 1845.83 375.062 1851.13 367.996 1856.43C353.865 1867.03 346.8 1879.39 346.8 1893.52C346.8 1900.59 346.8 1907.65 346.8 1914.72C339.735 1914.72 332.669 1914.72 325.604 1914.72C311.473 1914.72 290.277 1900.59 262.015 1872.33C233.753 1844.06 212.557 1801.67 198.426 1745.15C191.361 1716.89 184.295 1688.63 177.23 1660.36ZM913.8 1670.96C924.398 1670.96 931.464 1681.56 934.996 1702.76C938.529 1723.95 929.697 1745.15 908.501 1766.34C887.305 1787.54 864.342 1801.67 839.613 1808.74C814.884 1815.8 795.454 1810.5 781.323 1792.84C767.192 1775.18 765.426 1757.51 776.024 1739.85C786.622 1722.19 790.155 1708.05 786.622 1697.46C784.856 1692.16 783.09 1686.86 781.323 1681.56C795.454 1683.33 809.585 1685.09 823.716 1686.86C851.978 1690.39 871.407 1688.63 882.006 1681.56C892.604 1674.49 903.202 1670.96 913.8 1670.96ZM1459.6 1670.96C1484.33 1672.73 1509.06 1674.49 1533.79 1676.26C1583.25 1679.79 1611.51 1695.69 1618.58 1723.95C1625.64 1752.21 1622.11 1775.18 1607.98 1792.84C1593.85 1810.5 1576.18 1817.57 1554.99 1814.04C1533.79 1810.5 1512.59 1799.91 1491.4 1782.24C1470.2 1764.58 1459.6 1741.62 1459.6 1713.35C1459.6 1699.22 1459.6 1685.09 1459.6 1670.96ZM1303.28 1853.78C1310.35 1853.78 1318.3 1854.66 1327.13 1856.43C1344.79 1859.96 1364.22 1877.63 1385.42 1909.42C1406.61 1941.21 1417.21 1962.41 1417.21 1973.01C1417.21 1983.61 1408.38 1995.97 1390.72 2010.1C1373.05 2024.23 1350.09 2027.77 1321.83 2020.7C1293.57 2013.63 1277.67 1985.37 1274.14 1935.91C1270.6 1886.46 1274.14 1859.96 1284.73 1856.43C1290.03 1854.66 1296.22 1853.78 1303.28 1853.78ZM1088.67 1856.43C1099.27 1858.2 1109.87 1859.96 1120.46 1861.73C1116.93 1872.33 1113.4 1882.92 1109.87 1893.52C1102.8 1914.72 1101.03 1939.45 1104.57 1967.71C1108.1 1995.97 1095.73 2013.63 1067.47 2020.7C1039.21 2027.77 1016.25 2024.23 998.585 2010.1C980.921 1995.97 972.09 1981.84 972.09 1967.71C972.09 1953.58 986.221 1930.62 1014.48 1898.82C1042.74 1867.03 1067.47 1852.9 1088.67 1856.43ZM1194.65 1872.33C1229.98 1872.33 1249.41 1875.86 1252.94 1882.92C1256.47 1889.99 1260.01 1909.42 1263.54 1941.21C1267.07 1973.01 1261.77 2001.27 1247.64 2026C1233.51 2050.73 1215.85 2063.09 1194.65 2063.09C1173.45 2063.09 1157.56 2056.03 1146.96 2041.9C1136.36 2027.77 1129.3 2004.8 1125.76 1973.01C1122.23 1941.21 1124 1916.48 1131.06 1898.82C1138.13 1881.16 1159.32 1872.33 1194.65 1872.33ZM940.295 1988.91C950.893 1997.74 961.492 2006.57 972.09 2015.4C993.286 2033.06 1023.31 2048.96 1062.17 2063.09C1101.03 2077.22 1145.19 2084.29 1194.65 2084.29C1244.11 2084.29 1288.27 2077.22 1327.13 2063.09C1365.99 2048.96 1392.48 2033.06 1406.61 2015.4C1413.68 2006.57 1420.74 1997.74 1427.81 1988.91C1431.34 1992.44 1434.87 1995.97 1438.41 1999.5C1441.94 2003.04 1445.47 2006.57 1449.01 2010.1C1431.34 2022.47 1413.68 2034.83 1396.01 2047.2C1360.69 2071.92 1311.23 2087.82 1247.64 2094.89C1184.05 2101.95 1127.53 2098.42 1078.07 2084.29C1028.61 2070.16 993.286 2050.73 972.09 2026C961.492 2013.63 950.893 2001.27 940.295 1988.91ZM1491.4 2063.09C1503.76 2063.09 1516.13 2063.09 1528.49 2063.09C1553.22 2063.09 1572.65 2070.16 1586.78 2084.29C1600.91 2098.42 1607.98 2121.38 1607.98 2153.18C1607.98 2184.97 1600.91 2207.93 1586.78 2222.06C1572.65 2236.2 1558.52 2245.03 1544.39 2248.56C1530.26 2252.09 1514.36 2248.56 1496.7 2237.96C1487.87 2232.66 1479.03 2227.36 1470.2 2222.06C1473.73 2229.13 1477.27 2236.2 1480.8 2243.26C1487.87 2257.39 1503.76 2264.46 1528.49 2264.46C1553.22 2264.46 1567.35 2280.35 1570.88 2312.15C1574.42 2343.94 1569.12 2370.44 1554.99 2391.63C1540.86 2412.83 1517.89 2419.9 1486.1 2412.83C1470.2 2409.3 1454.3 2405.77 1438.41 2402.23C1443.71 2409.3 1449.01 2416.36 1454.3 2423.43C1464.9 2437.56 1477.27 2444.63 1491.4 2444.63C1498.46 2444.63 1505.53 2444.63 1512.59 2444.63C1510.83 2455.22 1509.06 2465.82 1507.3 2476.42C1503.76 2497.62 1493.16 2517.05 1475.5 2534.71C1457.84 2552.37 1417.21 2570.04 1353.62 2587.7C1321.83 2596.53 1290.03 2605.36 1258.24 2614.2C1258.24 2596.53 1258.24 2578.87 1258.24 2561.2C1258.24 2525.88 1267.07 2504.68 1284.73 2497.62C1302.4 2490.55 1325.36 2469.35 1353.62 2434.03C1381.88 2398.7 1397.78 2361.61 1401.31 2322.75C1404.85 2283.89 1396.01 2236.2 1374.82 2179.67C1353.62 2123.15 1353.62 2089.59 1374.82 2078.99C1396.01 2068.39 1415.44 2075.46 1433.11 2100.19C1450.77 2124.91 1466.67 2135.51 1480.8 2131.98C1494.93 2128.45 1500.23 2116.08 1496.7 2094.89C1494.93 2084.29 1493.16 2073.69 1491.4 2063.09ZM842.925 2068.39C848.666 2067.51 854.627 2067.51 860.809 2068.39C885.538 2071.92 897.903 2084.29 897.903 2105.48C897.903 2116.08 897.903 2126.68 897.903 2137.28C903.202 2137.28 908.501 2137.28 913.8 2137.28C924.398 2137.28 936.763 2124.91 950.893 2100.19C965.024 2075.46 984.454 2068.39 1009.18 2078.99C1033.91 2089.59 1035.68 2123.15 1014.48 2179.67C993.286 2236.2 982.688 2278.59 982.688 2306.85C982.688 2335.11 987.987 2361.61 998.585 2386.34C1009.18 2411.06 1026.85 2435.79 1051.58 2460.52C1076.3 2485.25 1095.73 2499.38 1109.87 2502.91C1124 2506.45 1131.06 2525.88 1131.06 2561.2C1131.06 2578.87 1131.06 2596.53 1131.06 2614.2C1102.8 2607.13 1074.54 2600.06 1046.28 2593C989.753 2578.87 949.127 2561.2 924.398 2540.01C899.669 2518.81 885.538 2497.62 882.006 2476.42C880.239 2465.82 878.473 2455.22 876.707 2444.63C883.772 2444.63 890.837 2444.63 897.903 2444.63C912.034 2444.63 922.632 2437.56 929.697 2423.43C933.23 2416.36 936.763 2409.3 940.295 2402.23C926.164 2405.77 912.034 2409.3 897.903 2412.83C869.641 2419.9 848.445 2411.06 834.314 2386.34C820.183 2361.61 813.118 2338.64 813.118 2317.45C813.118 2296.25 827.249 2282.12 855.51 2275.05C883.772 2267.99 901.435 2257.39 908.501 2243.26C912.034 2236.2 915.566 2229.13 919.099 2222.06C906.735 2227.36 894.37 2232.66 882.006 2237.96C857.277 2248.56 836.08 2246.79 818.417 2232.66C800.753 2218.53 788.389 2199.1 781.323 2174.37C774.258 2149.64 779.557 2124.91 797.221 2100.19C810.468 2081.64 825.703 2071.04 842.925 2068.39ZM1290.03 2108.13C1297.1 2108.13 1304.16 2109.02 1311.23 2110.78C1325.36 2114.32 1337.73 2126.68 1348.32 2147.88C1358.92 2169.07 1367.75 2209.7 1374.82 2269.76C1381.88 2329.81 1371.29 2379.27 1343.02 2418.13C1314.76 2456.99 1291.8 2479.95 1274.14 2487.02C1265.3 2490.55 1256.47 2494.08 1247.64 2497.62C1252.94 2472.89 1258.24 2448.16 1263.54 2423.43C1274.14 2373.97 1274.14 2335.11 1263.54 2306.85C1252.94 2278.59 1247.64 2239.73 1247.64 2190.27C1247.64 2140.81 1254.71 2114.32 1268.84 2110.78C1275.9 2109.02 1282.97 2108.13 1290.03 2108.13ZM1104.57 2110.78C1129.3 2114.32 1141.66 2140.81 1141.66 2190.27C1141.66 2239.73 1134.59 2283.89 1120.46 2322.75C1106.33 2361.61 1106.33 2400.47 1120.46 2439.33C1127.53 2458.76 1134.59 2478.19 1141.66 2497.62C1132.83 2494.08 1124 2490.55 1115.16 2487.02C1097.5 2479.95 1074.54 2458.76 1046.28 2423.43C1018.01 2388.1 1003.88 2351.01 1003.88 2312.15C1003.88 2273.29 1014.48 2229.13 1035.68 2179.67C1056.87 2130.21 1079.84 2107.25 1104.57 2110.78ZM1194.65 2126.68C1215.85 2126.68 1228.21 2154.94 1231.74 2211.47C1235.28 2267.99 1242.34 2306.85 1252.94 2328.05C1263.54 2349.24 1261.77 2389.87 1247.64 2449.92C1233.51 2509.98 1229.98 2564.74 1237.04 2614.2C1244.11 2663.65 1240.58 2693.68 1226.44 2704.28C1212.31 2714.88 1194.65 2714.88 1173.45 2704.28C1152.26 2693.68 1143.43 2647.76 1146.96 2566.5C1150.49 2485.25 1146.96 2430.49 1136.36 2402.23C1125.76 2373.97 1125.76 2349.24 1136.36 2328.05C1146.96 2306.85 1154.02 2267.99 1157.56 2211.47C1161.09 2154.94 1173.45 2126.68 1194.65 2126.68ZM1427.81 918.494C1426.04 934.391 1424.28 950.289 1422.51 966.186C1420.74 982.083 1418.98 997.98 1417.21 1013.88C1422.51 1001.51 1427.81 989.148 1433.11 976.784C1443.71 952.055 1445.47 936.158 1438.41 929.092C1434.87 925.56 1431.34 922.027 1427.81 918.494ZM473.978 1342.42C500.473 1349.48 526.968 1356.55 553.463 1363.62C579.959 1370.68 606.454 1377.75 632.949 1384.81C620.585 1377.75 608.221 1370.68 595.856 1363.62C571.127 1349.48 544.632 1342.42 516.37 1342.42C502.239 1342.42 488.108 1342.42 473.978 1342.42ZM1174.78 1360.97C1154.47 1359.2 1138.13 1360.08 1125.76 1363.62C1101.03 1370.68 1072.77 1388.34 1040.98 1416.61C1009.18 1444.87 986.221 1487.26 972.09 1543.78C957.959 1600.31 956.192 1644.47 966.791 1676.26C977.389 1708.05 995.052 1736.32 1019.78 1761.05C1044.51 1785.77 1081.6 1805.2 1131.06 1819.34C1180.52 1833.47 1226.44 1833.47 1268.84 1819.34C1311.23 1805.2 1343.02 1787.54 1364.22 1766.34C1385.42 1745.15 1403.08 1708.05 1417.21 1655.06C1431.34 1602.07 1431.34 1556.15 1417.21 1517.29C1403.08 1478.43 1385.42 1448.4 1364.22 1427.2C1343.02 1406.01 1304.16 1388.34 1247.64 1374.21C1219.38 1367.15 1195.09 1362.73 1174.78 1360.97ZM1194.65 1384.81C1229.98 1384.81 1260.01 1390.11 1284.73 1400.71C1309.46 1411.31 1334.19 1432.5 1358.92 1464.3C1383.65 1496.09 1387.18 1534.95 1369.52 1580.88C1351.86 1626.8 1330.66 1658.6 1305.93 1676.26C1281.2 1693.92 1254.71 1700.99 1226.44 1697.46C1198.18 1693.92 1178.75 1679.79 1168.16 1655.06C1157.56 1630.34 1157.56 1614.44 1168.16 1607.37C1178.75 1600.31 1194.65 1600.31 1215.85 1607.37C1237.04 1614.44 1252.94 1612.67 1263.54 1602.07C1274.14 1591.48 1279.44 1570.28 1279.44 1538.48C1279.44 1506.69 1263.54 1478.43 1231.74 1453.7C1199.95 1428.97 1169.92 1414.84 1141.66 1411.31C1127.53 1409.54 1113.4 1407.77 1099.27 1406.01C1106.33 1402.48 1113.4 1398.94 1120.46 1395.41C1134.59 1388.34 1159.32 1384.81 1194.65 1384.81ZM1095.29 1436.48C1112.07 1435.59 1131.06 1437.8 1152.26 1443.1C1194.65 1453.7 1222.91 1467.83 1237.04 1485.49C1251.17 1503.16 1254.71 1526.12 1247.64 1554.38C1240.58 1582.64 1222.91 1595.01 1194.65 1591.48C1166.39 1587.94 1148.73 1589.71 1141.66 1596.77C1134.59 1603.84 1132.83 1619.74 1136.36 1644.47C1139.89 1669.2 1150.49 1688.63 1168.16 1702.76C1185.82 1716.89 1215.85 1720.42 1258.24 1713.35C1300.63 1706.29 1335.96 1679.79 1364.22 1633.87C1378.35 1610.91 1392.48 1587.94 1406.61 1564.98C1404.85 1584.41 1403.08 1603.84 1401.31 1623.27C1397.78 1662.13 1383.65 1697.46 1358.92 1729.25C1334.19 1761.05 1302.4 1782.24 1263.54 1792.84C1224.68 1803.44 1184.05 1792.84 1141.66 1761.05C1099.27 1729.25 1076.3 1697.46 1072.77 1665.66C1069.24 1633.87 1071.01 1610.91 1078.07 1596.77C1085.14 1582.64 1099.27 1572.05 1120.46 1564.98C1141.66 1557.91 1161.09 1557.91 1178.75 1564.98C1196.42 1572.05 1207.01 1572.05 1210.55 1564.98C1214.08 1557.91 1207.01 1547.32 1189.35 1533.19C1171.69 1519.05 1148.73 1515.52 1120.46 1522.59C1092.2 1529.65 1071.01 1549.08 1056.87 1580.88C1042.74 1612.67 1040.98 1648 1051.58 1686.86C1062.17 1725.72 1078.07 1753.98 1099.27 1771.64C1109.87 1780.48 1120.46 1789.31 1131.06 1798.14C1120.46 1794.61 1109.87 1791.07 1099.27 1787.54C1078.07 1780.48 1058.64 1768.11 1040.98 1750.45C1023.31 1732.78 1009.18 1711.59 998.585 1686.86C987.987 1662.13 982.688 1632.1 982.688 1596.77C982.688 1561.45 987.987 1531.42 998.585 1506.69C1009.18 1481.96 1026.85 1462.53 1051.58 1448.4C1063.94 1441.34 1078.51 1437.36 1095.29 1436.48ZM1146.96 1533.19C1171.69 1533.19 1185.82 1536.72 1189.35 1543.78C1191.12 1547.32 1192.88 1550.85 1194.65 1554.38C1180.52 1552.62 1166.39 1550.85 1152.26 1549.08C1124 1545.55 1104.57 1547.32 1093.97 1554.38C1088.67 1557.91 1083.37 1561.45 1078.07 1564.98C1083.37 1559.68 1088.67 1554.38 1093.97 1549.08C1104.57 1538.48 1122.23 1533.19 1146.96 1533.19ZM622.351 1808.74C615.286 1808.74 588.791 1815.8 542.865 1829.93C519.903 1837 496.94 1844.06 473.978 1851.13C488.108 1851.13 502.239 1851.13 516.37 1851.13C544.632 1851.13 569.361 1847.6 590.557 1840.53C611.753 1833.47 624.118 1826.4 627.65 1819.34C629.417 1815.8 631.183 1812.27 632.949 1808.74C629.417 1808.74 625.884 1808.74 622.351 1808.74ZM516.37 2105.48C513.832 2105.82 511.291 2106.14 508.753 2106.48C511.276 2107.94 513.523 2109.09 516.37 2110.78C516.37 2109.02 516.37 2107.25 516.37 2105.48Z"
   fill="url(#RadialGradient)"
   fill-rule="nonzero"
   opacity="0.478887"
   stroke="none"
   id="path62" />
</g>
<path
   style="fill:#ffffff;fill-opacity:0.286275;stroke-width:4.56353"
   d="m 1934.1464,1651.8332 c -33.1998,-10.746 -82.8927,-17.6193 -153.4009,-21.2177 -30.8409,-1.574 -57.1997,-4.6825 -58.575,-6.9077 -1.3752,-2.2253 2.2956,-13.7126 8.1575,-25.5274 15.5633,-31.3683 32.0547,-37.9455 106.5805,-42.507 42.4375,-2.5975 67.7313,-6.4722 84.9356,-13.0112 29.5928,-11.2476 45.6238,-11.6574 75.115,-1.9203 17.2683,5.7015 50.6389,8.0868 145.6173,10.4086 130.8838,3.1995 145.6447,5.7873 157.3065,27.5774 11.0521,20.6511 4.6836,43.1742 -15.2492,53.9312 -11.98,6.465 -34.1135,8.1448 -137.4937,10.435 -101.3187,2.2444 -126.2304,4.089 -140.1819,10.3798 -21.1173,9.5218 -39.6127,9.1051 -72.8117,-1.6407 z"
   id="path5918" /><path
   style="fill:#ffffff;fill-opacity:0.286275;stroke-width:4.56353"
   d="m 610.36262,2006.0577 c -24.69397,-8.8886 -46.57961,-27.0384 -55.64831,-46.1493 -7.6006,-16.0171 -7.54165,-17.4104 1.63955,-38.7527 11.87374,-27.6012 11.87945,-32.872 0.0473,-43.58 -9.31869,-8.4333 -9.6207,-8.3881 -18.15183,2.7154 -15.79442,20.5568 -22.57063,39.7638 -22.57063,63.9761 v 23.9242 l -46.77617,-2.3928 c -87.16276,-4.4588 -101.4265,-21.0169 -83.55575,-96.9962 3.53724,-15.0389 5.67699,-28.0979 4.75499,-29.0199 -2.76727,-2.7673 -28.90689,17.347 -36.3463,27.9683 -3.81002,5.4395 -6.92731,17.6475 -6.92731,27.1288 0,16.5119 -0.6445,17.2387 -15.28765,17.2387 -29.83079,0 -81.59302,-48.0657 -105.66151,-98.1159 -12.96225,-26.9548 -43.33786,-131.1328 -43.33786,-148.6341 0,-3.8979 10.0837,-4.833 35.96137,-3.335 47.39183,2.7435 66.11705,13.8 95.06991,56.135 39.77084,58.1532 96.8026,86.7543 172.44334,86.4795 51.12809,-0.1858 95.16612,-10.145 159.6172,-36.0976 27.55093,-11.094 50.25024,-19.7808 50.44291,-19.304 0.19259,0.4767 4.17659,9.6619 8.85302,20.4115 16.79214,38.5993 13.29643,46.8636 -35.73005,84.4701 -28.70354,22.0175 -21.47911,37.3368 22.17569,47.0234 41.8601,9.2884 44.84716,51.6296 5.7092,80.9271 -34.3275,25.6965 -61.26066,33.1439 -86.72109,23.9794 z m -11.38091,-166.6704 c 22.44326,-8.6172 35.3487,-19.4415 35.3487,-29.6484 0,-6.2087 -25.77981,-1.3153 -84.89951,16.1151 -34.87833,10.2832 -66.49554,20.6503 -70.26045,23.0379 -4.47381,2.8372 10.54559,3.6892 43.35352,2.4594 37.36364,-1.4006 56.91287,-4.4596 76.45774,-11.964 z"
   id="path5957" /><path
   style="fill:#ffffff;fill-opacity:0.286275;stroke-width:4.56353"
   d="m 434.9846,1775.7963 c -46.13596,-17.1932 -112.58381,-69.0773 -126.77954,-98.9925 -4.28569,-9.0315 -6.75692,-17.456 -5.49162,-18.7213 1.26529,-1.2653 20.16482,3.1484 41.99895,9.8082 63.2098,19.2802 91.87277,19.7825 143.45438,2.514 32.43487,-10.8585 54.64544,-15.1001 88.98879,-16.9942 53.97349,-2.9767 79.87099,2.5998 93.69634,20.1759 24.22106,30.7921 -11.25803,63.9549 -102.42919,95.742 -44.87054,15.6442 -101.45489,18.3869 -133.43811,6.4679 z"
   id="path5996" /><path
   style="fill:#ffffff;fill-opacity:0.286275;stroke-width:4.56353"
   d="m 335.41932,1644.1769 c -36.96343,-10.4012 -48.83192,-11.5208 -118.65174,-11.1933 -105.18866,0.4936 -123.889245,-1.6714 -132.873241,-15.3827 -5.905772,-9.0134 -6.215635,-13.6829 -1.796531,-27.0729 2.937095,-8.8995 9.796282,-18.6779 15.242637,-21.7298 6.352145,-3.5594 43.443665,-6.5464 103.454795,-8.3313 76.41956,-2.2728 100.65615,-4.6707 132.34231,-13.0936 53.96832,-14.346 99.23211,-13.743 157.44172,2.0976 35.65644,9.7032 59.35617,12.9038 108.38379,14.6369 l 62.74851,2.2181 v 29.1451 29.145 l -26.24028,0.037 c -42.37633,0.061 -100.66577,8.1167 -147.17378,20.341 -56.4196,14.8295 -98.06349,14.6068 -152.87819,-0.8175 z"
   id="path6035" /><path
   style="fill:#ffffff;fill-opacity:0.286275;stroke-width:4.56353"
   d="m 552.0888,1537.6469 c -13.85863,-2.042 -41.33079,-8.9792 -61.04926,-15.4159 -42.14521,-13.7576 -92.81062,-15.4944 -139.64788,-4.7872 -16.31461,3.7296 -34.49151,7.8978 -40.39312,9.2626 -9.51807,2.2011 -8.37889,-0.5057 10.08454,-23.9618 30.98604,-39.365 64.03494,-72.6563 81.22539,-81.8213 11.21264,-5.9779 28.80584,-8.614 66.40075,-9.9493 44.79128,-1.5909 56.28414,-0.3428 92.49529,10.0442 87.6872,25.1529 114.19765,49.3682 114.19765,104.3109 v 17.1434 l -49.05793,-0.5565 c -26.98186,-0.3061 -60.3968,-2.2272 -74.25543,-4.2691 z"
   id="path6074" /><path
   style="fill:#ffffff;fill-opacity:0.286275;stroke-width:4.56353"
   d="m 182.54112,1522.7145 c 0,-14.4104 33.3811,-126.4372 45.27341,-151.9373 23.13461,-49.6066 58.19364,-79.8668 100.34072,-86.6064 l 18.67289,-2.9859 v 19.5384 c 0,17.0737 2.39837,21.7525 19.01343,37.0914 20.22091,18.6679 29.45667,22.3959 24.68636,9.9646 -1.60159,-4.1736 -5.30973,-21.571 -8.24031,-38.6609 -4.64567,-27.0914 -4.33207,-33.1616 2.44772,-47.3789 16.04709,-33.6511 98.71821,-57.2485 121.33361,-34.6331 4.75441,4.7544 10.11814,17.5893 11.9194,28.522 5.22822,31.7327 13.70923,47.4148 31.63324,58.4925 9.20478,5.6888 17.64393,9.4354 18.75366,8.3257 1.10973,-1.1098 -2.42252,-14.2093 -7.84945,-29.1102 -12.47309,-34.2476 -9.56824,-46.6598 16.84227,-71.9655 24.57545,-23.5474 54.89812,-39.4171 75.31534,-39.4171 19.67766,0 52.78053,19.6297 61.48332,36.4591 10.08038,19.4933 8.8344,51.0842 -2.58757,65.6048 -8.14229,10.3512 -12.90447,12.0243 -34.22646,12.0243 -27.64585,0 -29.42604,2.8359 -18.37824,29.2769 3.65954,8.7586 15.33013,21.4443 27.31272,29.6886 27.29104,18.7767 32.24931,28.2001 25.53791,48.5359 -10.40881,31.539 -31.42669,32.2342 -119.61016,3.9566 -77.63767,-24.8959 -113.68203,-29.1932 -151.83418,-18.1021 -56.82822,16.5204 -105.03595,48.5974 -126.12399,83.9218 -13.40067,22.4473 -30.98715,41.2216 -45.92286,49.0243 -16.66097,8.7041 -85.79278,9.0027 -85.79278,0.3705 z M 627.48511,1379.804 c -5.01988,-3.9701 -22.47537,-13.6587 -38.78998,-21.5303 -26.03048,-12.5594 -34.97191,-14.4386 -73.01645,-15.3459 -23.84444,-0.5686 -40.27314,0.3025 -36.50823,1.936 8.77404,3.8067 146.82175,41.696 152.87819,41.9597 2.50994,0.1093 0.45635,-3.0495 -4.56353,-7.0195 z"
   id="path6113" /><path
   style="fill:#ffffff;fill-opacity:0.286275;stroke-width:4.56353"
   d="m 1706.0855,1999.3788 c -28.0653,-17.7985 -40.0294,-38.5672 -43.4754,-75.4696 l -2.8057,-30.045 h 40.4245 40.4244 l -26.6243,-26.5777 c -14.6433,-14.6178 -29.3842,-31.5599 -32.7575,-37.6492 -9.0152,-16.2737 -7.7585,-37.8485 3.0016,-51.5277 14.2564,-18.1241 39.0824,-16.1211 115.6689,9.332 78.5004,26.0892 116.8749,28.5488 169.0867,10.8377 33.099,-11.2277 43.6994,-20.18 114.8088,-96.9585 27.5229,-29.7172 52.566,-40.1966 96.0601,-40.1966 h 28.85 v 18.1996 c 0,23.6449 -23.4056,97.3813 -45.7451,144.1142 -20.1367,42.1247 -48.1379,71.3042 -76.6112,79.835 -27.7966,8.3281 -39.2863,3.3956 -48.5416,-20.8389 -5.3243,-13.9415 -12.3859,-23.0242 -21.6089,-27.7936 -7.5351,-3.8965 -14.7811,-6.0036 -16.1023,-4.6824 -1.3213,1.3212 1.1267,16.8025 5.4399,34.4028 7.5223,30.6953 7.4979,32.6994 -0.5963,49.1289 -13.2151,26.8234 -43.8058,40.2361 -91.7676,40.2361 -46.6004,0 -44.3268,2.3431 -55.8779,-57.5848 -5.8405,-30.3011 -11.5803,-38.9771 -28.4825,-43.0527 l -12.5295,-3.0212 11.3886,30.2568 c 15.6295,41.5238 14.9309,57.6411 -3.4037,78.523 -31.0864,35.4055 -81.0801,44.0878 -118.224,20.5318 z"
   id="path6152" /><path
   style="fill:#ffffff;fill-opacity:0.286275;stroke-width:4.56353"
   d="m 1852.7924,1776.8692 c -6.2748,-1.1833 -24.7571,-6.4303 -41.0717,-11.66 -80.5056,-25.8061 -119.7761,-66.4524 -91.5113,-94.7172 24.1508,-24.1508 108.2895,-24.2052 185.0636,-0.1197 52.2693,16.3979 83.509,16.4291 124.8737,0.1247 26.3342,-10.38 53.0738,-12.2418 58.1379,-4.0479 2.0126,3.2563 -12.1031,20.2083 -36.338,43.6396 -54.3386,52.5368 -84.5601,66.7747 -144.3919,68.0256 -23.8444,0.4985 -48.4874,-0.062 -54.7623,-1.2451 z"
   id="path6191" /><path
   style="fill:#ffffff;fill-opacity:0.286275;stroke-width:4.56353"
   d="m 1750.2642,1537.6266 c -9.9567,-2.5024 -22.8809,-9.0384 -28.7205,-14.5244 -9.0402,-8.4929 -10.4186,-13.7089 -9.2782,-35.111 1.2797,-24.017 2.1417,-25.5853 19.3599,-35.2216 9.9114,-5.5469 34.5545,-15.7082 54.7624,-22.5807 31.747,-10.7967 44.1861,-12.5269 91.504,-12.7276 91.946,-0.3899 136.7519,19.9589 182.8066,83.0223 13.7463,18.823 24.1659,35.0511 23.1546,36.0624 -1.0113,1.0112 -24.6554,-2.5267 -52.5426,-7.8621 -57.7686,-11.0523 -110.259,-10.4252 -151.1368,1.8055 -30.7936,9.2135 -105.3505,13.3097 -129.9094,7.1372 z"
   id="path6230" /><path
   style="fill:#ffffff;fill-opacity:0.286275;stroke-width:4.56353"
   d="m 2116.6803,1519.5207 c -9.223,-4.8718 -28.7321,-22.7045 -43.3535,-39.6282 -65.3253,-75.6115 -90.0984,-90.9801 -154.3632,-95.7633 -35.5842,-2.6486 -62.2269,2.8837 -137.3703,28.5247 -56.0887,19.1389 -79.8417,20.2644 -95.5771,4.529 -21.8252,-21.8252 -12.9666,-50.8524 28.9219,-94.768 l 25.1554,-26.3729 h -40.1347 -40.1348 l 2.8739,-27.4956 c 1.5806,-15.1226 5.9066,-33.3603 9.6132,-40.5282 7.8262,-15.1342 31.0932,-35.7865 47.8817,-42.5009 47.049,-18.8168 118.909,19.304 118.909,63.0797 0,7.9275 -5.1163,28.0064 -11.3696,44.6199 -12.569,33.3927 -8.5963,39.3116 13.3825,19.9383 9.0183,-7.9492 13.1927,-18.5123 18.4852,-46.7762 4.2666,-22.7849 9.7461,-38.6524 14.5772,-42.2126 20.2657,-14.9341 97.5233,-0.094 119.029,22.8643 17.9839,19.1983 20.5407,33.9061 12.3187,70.8622 -4.1171,18.5056 -6.3504,34.7817 -4.9629,36.1692 4.6044,4.6044 34.1796,-28.9626 37.4137,-42.4633 4.7575,-19.8604 10.4398,-24.6839 29.079,-24.6839 19.8532,0 52.8349,19.9916 69.8791,42.3567 24.8105,32.5558 44.8745,86.9486 68.9649,186.9606 l 3.0229,12.5497 -37.7361,-0.2017 c -28.2593,-0.151 -41.9472,-2.4262 -54.5051,-9.0595 z"
   id="path6269" /><path
   style="fill:#ffffff;fill-opacity:0.286275;stroke-width:4.56353"
   d="m 1070.5644,2596.5807 c -71.62803,-18.6031 -111.32203,-34.1386 -137.17865,-53.6891 -26.76118,-20.2345 -46.56307,-50.4408 -50.76994,-77.4455 l -3.0214,-19.395 h 16.77351 c 12.2208,0 19.77134,-3.2347 27.81839,-11.9177 10.46377,-11.2906 18.56419,-28.0381 15.17627,-31.3769 -0.85665,-0.8442 -15.24832,1.5416 -31.98147,5.3019 -27.82495,6.2527 -31.81003,6.179 -46.64987,-0.863 -21.60258,-10.2511 -43.85971,-53.2622 -43.85971,-84.7573 0,-25.8434 9.67166,-35.6745 47.03437,-47.8099 26.03801,-8.4571 41.64183,-20.4369 51.63228,-39.6403 7.79006,-14.9739 4.70126,-15.3861 -25.6502,-3.4227 -41.15132,16.2204 -70.46985,8.5569 -90.35474,-23.6175 -26.70014,-43.2018 -23.46443,-80.8664 9.94233,-115.7316 17.09964,-17.8462 21.92136,-20.3743 38.8584,-20.3743 19.4265,0 36.38781,6.1735 42.62501,15.5146 1.84402,2.7617 3.38421,15.8026 3.42265,28.9798 0.0687,23.5627 0.29606,23.9585 13.76046,23.9585 15.31028,0 23.93673,-7.2522 44.94236,-37.7829 15.87761,-23.0773 26.03036,-28.2829 46.42508,-23.8035 16.81927,3.6942 27.28427,17.9516 27.28427,37.1719 0,8.0445 -9.382,44.0387 -20.8489,79.9872 -32.02605,100.4006 -31.74678,156.276 1.0609,212.2581 18.3677,31.342 59.7628,73.7367 87.017,89.118 13.3372,7.5271 26.2564,17.4353 28.7091,22.0183 5.1867,9.6915 6.1198,91.2772 1.0369,90.6622 -1.8825,-0.2277 -25.8244,-6.2322 -53.2044,-13.3433 z"
   id="path6308" /><path
   style="fill:#ffffff;fill-opacity:0.286275;stroke-width:4.56353"
   d="m 1115.7826,2484.1462 c -17.8214,-9.3394 -53.4584,-43.7615 -73.8387,-71.3213 -24.3567,-32.9369 -33.9742,-62.6257 -33.882,-104.5915 0.094,-42.7678 9.2942,-79.2794 32.9086,-130.5996 27.4527,-59.6616 57.0971,-79.4547 80.959,-54.0549 23.3701,24.8764 22.7067,108.9771 -1.4975,189.843 -17.5395,58.5993 -13.8607,104.9444 13.5165,170.2783 4.0777,9.7311 -0.2458,9.8372 -18.1659,0.446 z"
   id="path6347" /><path
   style="fill:#ffffff;fill-opacity:0.286275;stroke-width:4.56353"
   d="m 1184.2355,2706.4215 c -28.8483,-11.8074 -34.1491,-35.8274 -34.2961,-155.4093 -0.087,-70.9164 -2.0282,-106.3389 -7.002,-127.7788 -12.6505,-54.5301 -13.1218,-70.7199 -2.8883,-99.2052 11.6709,-32.4864 13.298,-41.331 18.9507,-103.0122 5.4507,-59.4765 16.7407,-89.8484 33.3989,-89.8484 23.0633,0 31.4308,22.3391 39.8244,106.3207 2.7088,27.102 9.2952,63.0398 14.6364,79.8617 12.456,39.2289 11.835,66.3207 -3.2638,142.3916 -11.5601,58.2424 -12.0593,66.1456 -9.1375,144.6832 l 3.0905,83.0755 -11.6177,11.6177 c -11.7647,11.7648 -25.0919,14.0992 -41.6955,7.3035 z"
   id="path6386" /><path
   style="fill:#ffffff;fill-opacity:0.286275;stroke-width:4.56353"
   d="m 1262.2207,2440.4652 c 13.1654,-63.7723 13.474,-96.5106 1.3239,-140.447 -12.2512,-44.3021 -16.7696,-140.0594 -7.8515,-166.3933 5.0869,-15.021 8.7196,-18.6079 21.4786,-21.2077 33.0645,-6.7375 58.9873,10.3177 73.1283,48.1129 14.3273,38.2933 24.81,112.7752 22.2331,157.9712 -1.8318,32.1259 -5.0332,45.9161 -16.0225,69.0173 -21.3395,44.8588 -66.7198,93.261 -95.2406,101.5827 l -9.6726,2.8222 z"
   id="path6425" /><path
   style="fill:#ffffff;fill-opacity:0.286275;stroke-width:4.56353"
   d="m 1260.4252,2570.4072 c 2.2042,-43.8341 10.929,-66.9368 27.2332,-72.1115 14.6242,-4.6416 52.2956,-41.3735 74.6418,-72.7805 49.2952,-69.283 53.6665,-127.9929 17.7027,-237.7642 -8.6787,-26.49 -17.002,-57.0823 -18.4961,-67.9828 -2.3557,-17.187 -1.1531,-21.3825 9.0554,-31.591 19.4068,-19.4068 32.2203,-15.8527 64.502,17.891 30.6256,32.0126 41.7991,35.9463 57.5014,20.244 8.1384,-8.1384 8.9976,-12.7917 6.3195,-34.2265 l -3.0995,-24.8075 h 28.3582 c 51.5083,0 75.2431,21.0308 80.4525,71.287 8.2707,79.7895 -50.3591,130.0164 -110.5752,94.7274 -11.2276,-6.5798 -21.4993,-10.8778 -22.8259,-9.5512 -4.0142,4.0142 11.4365,30.0448 20.8113,35.062 4.821,2.5801 19.4674,6.2348 32.5476,8.1215 33.7584,4.8693 43.0178,18.2037 43.0178,61.95 0,41.4627 -11.1726,65.4591 -36.2788,77.9192 -15.4986,7.6918 -20.5683,8.0729 -45.3476,3.4085 -15.3441,-2.8883 -32.5188,-6.5115 -38.1662,-8.0514 -14.8262,-4.0429 -12.6922,3.247 7.2852,24.8864 15.1443,16.4043 20.1385,19.0135 36.3941,19.0135 18.7456,0 18.8279,0.075 16.2503,14.8314 -10.0676,57.6352 -36.821,85.0538 -106.4863,109.134 -25.8888,8.9486 -134.7742,40.3216 -139.943,40.3216 -1.5742,0 -1.9587,-17.9689 -0.8544,-39.9309 z"
   id="path6464" /><path
   style="fill:#ffffff;fill-opacity:0.286275;stroke-width:4.56353"
   d="m 1526.5002,1800.7311 c -44.2298,-21.1294 -61.7397,-46.8393 -65.2425,-95.7964 l -2.2582,-31.5605 44.8877,3.1553 c 57.8059,4.0634 81.3552,10.2009 97.6911,25.461 24.9485,23.3053 24.0072,68.6016 -1.9653,94.5741 -18.8108,18.8108 -39.9379,20.0148 -73.1128,4.1665 z"
   id="path6503" /><path
   style="fill:#ffffff;fill-opacity:0.286275;stroke-width:4.56353"
   d="m 1518.6083,1655.8837 c -9.724,-2.7132 -23.1315,-11.7104 -31.2793,-20.9902 -13.5306,-15.4105 -14.1698,-17.8426 -12.4921,-47.5342 1.5123,-26.764 3.5799,-33.1018 14.2867,-43.7941 11.7922,-11.7763 14.6956,-12.4527 50.0469,-11.6592 62.1642,1.3952 98.7061,20.7097 108.5839,57.393 6.4998,24.1382 -5.0605,47.2971 -29.9837,60.0666 -21.0148,10.7671 -71.9377,14.1143 -99.1624,6.5181 z"
   id="path6542" /><path
   style="fill:#ffffff;fill-opacity:0.286275;stroke-width:4.56353"
   d="m 1457.5773,1507.9986 c -5.5744,-22.2103 0.7475,-55.5893 13.7595,-72.6489 15.6223,-20.4819 54.1545,-46.7288 77.981,-53.1182 10.0398,-2.6923 21.7028,-7.9714 25.9178,-11.7313 6.976,-6.2228 9.1601,-4.5825 24.3392,18.2788 18.8429,28.3795 23.7007,51.76 16.393,78.8988 -8.2916,30.7927 -17.1766,35.5389 -68.0724,36.363 -28.0622,0.4543 -51.5074,3.4369 -64.1816,8.1649 -24.8112,9.2556 -22.6711,9.6001 -26.1365,-4.2071 z"
   id="path6581" /><path
   style="fill:#ffffff;fill-opacity:0.286275;stroke-width:4.56353"
   d="m 1314.4513,2013.6497 c -8.6994,-4.3885 -19.5496,-14.4475 -24.1115,-22.3534 -8.2181,-14.2418 -19.2426,-86.9885 -15.3751,-101.4544 1.0862,-4.0626 3.2918,-13.2736 4.9014,-20.4688 2.8987,-12.9579 3.1932,-13.0629 30.9926,-11.0521 27.4332,1.9843 28.5986,2.616 51.6747,28.0084 23.6061,25.9756 52.1603,73.3527 52.1603,86.5443 0,9.7228 -21.2883,34.0535 -36.8252,42.0879 -17.3544,8.9743 -44.1243,8.4205 -63.4172,-1.3119 z"
   id="path6620" /><path
   style="fill:#ffffff;fill-opacity:0.286275;stroke-width:4.56353"
   d="m 1172.9847,2056.7527 c -8.8204,-3.038 -20.2483,-12.0421 -25.8404,-20.3598 -12.7168,-18.9153 -21.7588,-68.8383 -19.1072,-105.4962 1.6726,-23.124 4.3095,-30.5715 14.3953,-40.6573 11.7771,-11.777 14.4593,-12.3476 58.0457,-12.3476 52.2765,0 52.2192,-0.039 57.5938,38.7507 4.8894,35.2872 3.5737,70.5057 -3.2837,87.9026 -9.3611,23.7484 -27.2158,44.9517 -43.6265,51.8085 -17.8421,7.4549 -17.6955,7.4534 -38.177,0.3991 z"
   id="path6659" /><path
   style="fill:#ffffff;fill-opacity:0.286275;stroke-width:4.56353"
   d="m 1016.6558,2017.8854 c -4.3209,-1.7138 -15.1022,-9.9507 -23.9585,-18.3041 -28.3187,-26.7109 -17.80631,-58.6315 36.0986,-109.6126 29.494,-27.8942 43.2119,-33.9195 68.5675,-30.1172 l 18.8898,2.8327 -8.5463,32.7032 c -5.8648,22.4423 -7.8094,41.3616 -6.1979,60.2989 2.8467,33.4519 -2.9464,47.1132 -24.5799,57.9634 -15.9427,7.9961 -45.5473,10.0765 -60.2733,4.2357 z"
   id="path6698" /><path
   style="fill:#ffffff;fill-opacity:0.286275;stroke-width:4.56353"
   d="m 809.10466,1808.1503 c -12.2565,-1.9156 -37.86841,-30.0808 -37.86841,-41.6436 0,-4.6135 4.32955,-18.1758 9.62121,-30.1385 6.12836,-13.8542 8.77046,-26.993 7.27777,-36.1914 l -2.34345,-14.441 40.90971,1.956 c 31.9907,1.5294 44.68972,0.2513 58.24786,-5.8625 25.52127,-11.5085 38.04126,-8.1503 44.61226,11.9663 7.81482,23.9245 0.3043,46.2426 -23.6089,70.1558 -29.523,29.523 -70.65163,48.293 -96.84805,44.1989 z"
   id="path6737" /><path
   style="fill:#ffffff;fill-opacity:0.286275;stroke-width:4.56353"
   d="m 786.5892,1653.7122 c -45.90655,-16.2759 -66.55174,-52.3882 -47.43147,-82.9667 29.82552,-47.699 140.20489,-50.6877 169.14412,-4.5798 20.76329,33.0814 1.97284,79.736 -36.40856,90.3984 -22.91439,6.3657 -63.09456,5.0223 -85.30409,-2.8519 z"
   id="path6776" /><path
   style="fill:#ffffff;fill-opacity:0.286275;stroke-width:4.56353"
   d="m 885.32445,1507.841 c -18.9447,-5.5889 -70.86476,-5.0477 -92.16157,0.9606 -6.49484,1.8324 -7.33508,-0.2897 -5.2361,-13.2242 1.68437,-10.3796 -0.80029,-23.079 -7.61467,-38.9195 -11.22834,-26.101 -10.04927,-38.8635 5.09186,-55.1156 8.54788,-9.1751 13.27785,-10.4126 33.4144,-8.7428 26.3158,2.1823 68.04011,21.3425 92.67641,42.5578 13.50872,11.6329 16.40059,17.5034 18.28545,37.1194 1.87013,19.4629 0.64827,24.8918 -7.41784,32.9579 -5.31122,5.3112 -11.19696,9.3885 -13.07942,9.0607 -1.88245,-0.3278 -12.66379,-3.3223 -23.95852,-6.6543 z"
   id="path6815" /><path
   style="fill:#ffffff;fill-opacity:0.286275;stroke-width:4.56353"
   d="m 1056.4568,1328.6125 c -21.96,-10.1241 -59.52889,-49.2983 -68.98703,-71.9348 -14.66804,-35.1056 -6.24094,-69.7714 19.32393,-79.4911 17.0323,-6.4757 55.1852,-5.2785 69.6171,2.1845 21.941,11.3461 24.6046,18.1308 25.6857,65.4238 0.6343,27.7484 3.8374,51.9431 8.5401,64.5086 4.1389,11.0588 6.9899,20.5502 6.3356,21.0921 -0.6543,0.5418 -10.4307,2.2558 -21.7255,3.8088 -15.0224,2.0656 -25.4366,0.5643 -38.7899,-5.5919 z"
   id="path6854" /><path
   style="fill:#ffffff;fill-opacity:0.286275;stroke-width:4.56353"
   d="m 1147.0527,1314.3263 c -7.897,-3.1861 -10.8866,-10.3864 -15.3841,-37.0506 -10.2819,-60.9579 3.7998,-113.283 36.3991,-135.2528 27.5958,-18.5978 61.9769,-9.2909 77.4066,20.9537 17.9545,35.1937 22.6768,108.4337 8.6782,134.5926 -2.4642,4.6049 -11.4368,11.279 -19.9389,14.8315 -16.8655,7.0468 -71.4778,8.2534 -87.1609,1.9256 z"
   id="path6893" /><path
   style="fill:#ffffff;fill-opacity:0.286275;stroke-width:4.56353"
   d="m 1286.5683,1328.6237 c -10.2884,-8.3311 -10.3706,-9.0952 -4.3894,-40.7944 3.6646,-19.422 5.0708,-45.8515 3.5261,-66.2756 l -2.5692,-33.9712 24.7903,-2.0558 c 17.0426,-1.4133 26.7002,-4.6677 30.9011,-10.4128 5.7574,-7.8737 8.3888,-6.9599 45.5116,15.8055 l 39.4009,24.1625 -9.3618,16.5215 c -20.578,36.3156 -60.4471,88.2656 -74.1534,96.623 -18.3467,11.1868 -40.1325,11.3481 -53.6562,0.3973 z"
   id="path6932" /><path
   style="fill:#ffffff;fill-opacity:0.286275;stroke-width:2.35658"
   d="m 1136.0699,2094.5243 c -40.6678,-4.5185 -94.7632,-21.3618 -125.0958,-38.95 -15.64619,-9.0724 -51.38477,-41.9415 -48.6148,-44.7115 0.84276,-0.8427 4.4375,1.1506 7.98831,4.4296 24.50609,22.6304 85.22989,50.3436 132.66649,60.5467 86.3557,18.574 182.2016,9.6328 251.9149,-23.5004 30.0539,-14.284 44.7775,-25.4133 60.1991,-45.5036 6.4806,-8.4426 12.363,-15.3889 13.072,-15.4363 0.7091,-0.047 5.3047,4.026 10.2124,9.052 l 8.9233,9.1382 -30.2434,21.2323 c -48.4118,33.9876 -78.2705,46.8834 -131.9027,56.9681 -48.961,9.2063 -104.3579,11.7083 -149.1198,6.7349 z"
   id="path6971" /><path
   style="fill:#ffffff;fill-opacity:0.286275;stroke-width:2.35658"
   d="m 1085.2064,1078.3104 c -16.604,-7.4609 -33.3025,-30.7935 -50.0466,-69.9294 -19.5009,-45.57929 -28.9932,-85.79624 -29.1836,-123.64508 -0.098,-19.57917 0.9697,-26.99425 6.1103,-42.41849 11.237,-33.71623 24.9632,-53.27387 79.0114,-112.57885 l 29.4573,-32.32231 6.7665,7.4931 c 6.0701,6.72181 6.6268,8.6731 5.4089,18.95703 -0.7468,6.30517 -5.6976,24.03596 -11.0018,39.40176 -16.13,46.72714 -16.1989,72.16554 -0.3231,119.30037 11.7483,34.88034 16.5888,61.53414 18.3975,101.30485 2.2975,50.51632 -5.0893,80.63962 -22.6819,92.49592 -8.919,6.0108 -21.196,6.7575 -31.9149,1.9411 z"
   id="path7010" /><path
   style="fill:#ffffff;fill-opacity:0.286275;stroke-width:2.35658"
   d="m 1180.9616,1059.1862 c -12.1764,-10.2457 -19.4777,-37.0744 -22.7408,-83.56086 -3.5547,-50.64028 -9.7486,-83.7711 -20.6907,-110.67294 -9.4777,-23.30149 -9.7302,-42.49395 -0.9311,-70.78395 11.1015,-35.6924 11.9705,-47.74029 11.4153,-158.26733 -0.5166,-102.84291 0.8438,-127.3936 7.8054,-140.85579 6.4954,-12.56072 24.863,-15.39355 46.7393,-7.20857 19.2482,7.20165 26.6844,17.36449 33.9695,46.42514 3.4235,13.65658 4.054,30.15267 4.3046,112.62012 0.3055,100.55388 1.8439,119.76503 11.8002,147.35734 5.3388,14.79552 7.0127,43.89364 3.548,61.67581 -1.5905,8.16322 -6.5424,26.17614 -11.0041,40.02873 -15.2501,47.34749 -17.6217,62.03021 -19.0556,117.9759 l -1.3137,51.2557 h -18.3642 c -16.2304,0 -19.1914,-0.696 -25.4821,-5.9893 z"
   id="path7049" /><path
   style="fill:#ffffff;fill-opacity:0.286275;stroke-width:2.35658"
   d="m 1272.9852,1076.8877 c -9.7947,-5.9716 -18.6509,-24.5757 -22.096,-46.4168 -3.494,-22.1514 -0.7279,-85.74484 4.9627,-114.09385 2.5085,-12.49669 7.9401,-32.11525 12.0702,-43.59679 9.7446,-27.08959 16.4156,-50.08338 16.4156,-56.5816 0,-2.84488 -2.5694,-8.22609 -5.7098,-11.95826 -3.1404,-3.73216 -7.7873,-13.09257 -10.3264,-20.80091 -5.9596,-18.09274 -18.1728,-78.38987 -16.2644,-80.29827 2.4421,-2.44208 76.5717,53.28529 96.008,72.17457 30.2916,29.43913 34.1193,41.76618 34.0259,109.58111 -0.057,41.67275 -0.6926,49.45169 -5.4839,67.16261 -11.5136,42.55977 -33.2394,89.57439 -50.8149,109.96309 -15.6767,18.1861 -37.3358,24.2854 -52.787,14.8651 z"
   id="path7088" /><path
   style="fill:#ffffff;fill-opacity:0.286275;stroke-width:2.35658"
   d="m 1491.717,1092.0207 v -36.7825 l -6.4806,1.5644 c -20.4211,4.9293 -25.2926,7.0564 -33.8338,14.7729 -5.1765,4.6766 -13.5672,15.6179 -18.646,24.3141 -11.9025,20.3798 -20.979,25.4273 -38.4658,21.3908 -17.6164,-4.0663 -26.52,-10.5692 -31.1809,-22.7735 -5.6142,-14.7006 -3.287,-32.6671 8.6257,-66.5916 24.1519,-68.77918 31.2847,-102.67092 31.0913,-147.73157 -0.2686,-62.56023 -18.5622,-99.51568 -69.4488,-140.2956 -49.3633,-39.55914 -66.6541,-61.73805 -72.3864,-92.84977 -3.7552,-20.38094 -3.4337,-64.96237 0.4685,-64.96237 1.6747,0 30.6085,7.82587 64.2973,17.39082 91.4418,25.96222 121.5584,39.56064 149.5809,67.53969 30.8797,30.83186 43.3856,62.66388 29.9122,76.13732 -3.26,3.25993 -13.0853,8.06028 -22.0761,10.78565 -8.9109,2.70115 -18.5917,6.76989 -21.5129,9.04164 -5.9549,4.63098 -16.1887,28.84076 -12.1914,28.84076 1.38,0 13.3059,-2.74846 26.502,-6.1077 50.7342,-12.91506 68.9077,-3.09693 90.7873,49.04749 5.6708,13.51482 6.2108,17.57153 6.2341,46.83372 0.028,35.18965 -0.9017,38.00098 -14.438,43.65933 -4.0666,1.69987 -19.8166,5.28086 -35.0001,7.9578 -36.6558,6.4626 -44.2724,10.47327 -50.2712,26.47128 -2.5607,6.82917 -4.4818,12.60977 -4.269,12.84578 0.2128,0.23602 13.4167,-4.29885 29.342,-10.07747 33.7607,-12.2503 45.0017,-14.24456 59.0179,-10.4704 26.4989,7.13538 54.7012,59.0948 51.7024,95.2556 -1.5708,18.9427 -13.4379,41.723 -30.7154,58.9619 -18.9232,18.8811 -29.2107,22.614 -62.3209,22.614 h -24.3243 z m -61.5827,-104.89828 c 10.8586,-25.69415 15.1438,-42.08699 13.1149,-50.17052 -0.7639,-3.04385 -4.8064,-8.84659 -8.9833,-12.89496 l -7.5943,-7.36069 -4.1452,39.48002 c -2.2799,21.714 -4.7477,43.72187 -5.484,48.90633 -1.9603,13.8035 1.9153,8.4867 13.0919,-17.96018 z"
   id="path7127" /><path
   style="fill:#ffffff;fill-opacity:0.286275;stroke-width:2.35658"
   d="m 833.05207,1123.2632 c -23.34413,-10.8845 -49.96169,-47.429 -55.18214,-75.7621 -7.46358,-40.5072 29.84172,-95.83436 64.61799,-95.83436 6.61735,0 17.37604,2.77586 28.16217,7.26614 9.59972,3.99637 20.87416,7.26613 25.05431,7.26613 7.97601,0 23.36295,-9.78725 23.36295,-14.86057 0,-1.56079 -6.62789,-5.37447 -14.72865,-8.47486 -53.97127,-20.65627 -70.92508,-30.36716 -81.87316,-46.89576 -6.21488,-9.38274 -7.0844,-12.7552 -7.05987,-27.38187 0.0325,-19.35188 3.83899,-35.33984 12.44799,-52.28315 18.2576,-35.93265 36.56573,-42.37067 86.25684,-30.33204 13.47524,3.26464 24.94465,5.4915 25.48757,4.94858 1.78673,-1.78674 -12.86988,-28.45451 -18.52708,-33.71009 -7.66907,-7.12464 -16.78817,-10.17246 -30.43605,-10.17246 -13.42759,0 -13.09803,1.02014 -8.10349,-25.08394 9.09689,-47.54516 39.47807,-77.97184 105.88497,-106.04357 53.99938,-22.82679 101.08228,-36.18988 127.50988,-36.18988 h 13.2442 l -0.7728,44.18593 c -0.9321,53.29466 -2.1997,56.80256 -24.3549,67.39607 -35.4099,16.93133 -80.5937,64.12446 -101.951,106.48498 -14.78541,29.32573 -18.22446,45.59865 -18.16051,85.93222 0.0671,42.31038 1.4752,48.86349 26.29661,122.379 22.2576,65.9219 22.8143,89.8478 2.4383,104.791 -4.6425,3.4046 -11.2315,5.0721 -22.57503,5.713 -22.56276,1.2749 -34.49546,-5.2945 -66.75031,-36.7486 -14.02642,-13.6783 -25.87475,-24.4321 -26.32961,-23.8975 -0.45487,0.5345 -2.1635,11.0463 -3.79697,23.3595 -1.63346,12.3131 -5.01123,26.4059 -7.50615,31.3172 -9.21134,18.1326 -30.10672,23.145 -52.65606,12.631 z"
   id="path7166" /><path
   style="fill:#ffffff;fill-opacity:0.286275;stroke-width:2.35658"
   d="m 755.64781,1807.2801 c -22.30823,-24.6514 -43.07218,-70.9698 -53.56935,-119.4978 -7.22335,-33.3933 -8.89409,-106.0833 -3.4258,-149.0491 7.88286,-61.9376 22.14808,-105.1736 46.96034,-142.3303 14.0892,-21.0988 38.31279,-48.4375 42.91835,-48.4375 1.30883,0 4.20893,1.3376 6.44465,2.9724 3.66073,2.6768 2.88136,3.856 -7.83753,11.8584 -15.70329,11.7236 -24.05519,23.4331 -39.0071,54.6884 -15.0283,31.4151 -27.41471,67.33 -34.13518,98.9765 -6.47025,30.4682 -8.89635,96.8974 -4.7488,130.0274 6.07613,48.5352 27.81941,114.7503 51.08982,155.5846 5.64219,9.9007 9.86052,18.3994 9.37406,18.8858 -0.48646,0.4865 -6.81502,-5.669 -14.06346,-13.6788 z"
   id="path7205" /><path
   style="fill:#ffffff;fill-opacity:0.286275;stroke-width:2.35658"
   d="m 1217.1751,1694.5472 c -28.399,-6.8694 -51.0302,-33.3067 -54.646,-63.8362 -1.7888,-15.1038 2.7688,-22.3792 16.3021,-26.0233 8.3996,-2.2618 13.173,-1.9036 30.1665,2.264 37.6739,9.2394 52.2082,5.2512 63.5571,-17.4399 5.4116,-10.82 5.8914,-14.3709 5.8914,-43.5934 0,-29.7539 -0.4181,-32.7064 -6.4576,-45.5989 -8.901,-19.0007 -23.159,-35.2677 -45.3096,-51.6936 -33.8356,-25.0911 -57.9828,-34.8597 -99.3277,-40.1823 l -23.2922,-2.9985 11.7829,-6.0296 c 20.4055,-10.442 34.171,-12.5884 78.9456,-12.3097 47.1215,0.2933 66.0069,3.9982 96.421,18.9158 20.1754,9.8957 50.8513,37.7313 67.9302,61.6405 24.9328,34.9043 26.0252,72.8814 3.6067,125.388 -23.7677,55.6664 -52.7915,86.8897 -92.0364,99.0112 -15.3351,4.7366 -39.5759,5.8622 -53.534,2.4859 z"
   id="path7283" /><path
   style="fill:#ffffff;fill-opacity:0.286275;stroke-width:2.35658"
   d="m 1205.7607,1791.9895 c -29.7215,-7.1957 -69.0893,-32.7881 -97.9117,-63.6508 -27.6385,-29.5951 -36.9524,-55.142 -35.1707,-96.4688 0.7156,-16.599 2.1927,-23.8442 6.7226,-32.9748 15.4217,-31.0844 62.3411,-45.755 102.0348,-31.904 20.3444,7.0991 28.2777,5.3046 29.4282,-6.6565 0.659,-6.8509 -0.842,-9.4291 -11.4334,-19.6378 -13.899,-13.3968 -27.7256,-20.3074 -44.6385,-22.3105 -26.4533,-3.133 -60.7597,9.8953 -78.251,29.717 -37.962,43.0193 -42.7158,110.92 -12.3649,176.6108 10.7116,23.1837 22.8838,38.9797 41.971,54.466 8.5612,6.946 15.1868,13.0081 14.7236,13.4712 -1.3779,1.378 -34.9933,-11.1905 -43.9123,-16.4184 -29.0449,-17.0248 -52.7874,-42.6356 -69.4737,-74.9408 -18.84838,-36.4909 -25.78953,-76.7764 -22.16283,-128.6301 4.3087,-61.6048 28.07583,-103.2578 71.03263,-124.4883 28.5136,-14.0922 60.3679,-14.0734 109.1542,0.064 58.1142,16.8408 83.4033,41.1331 83.4572,80.1675 0.042,30.1005 -10.2106,51.8575 -27.9235,59.2584 -6.2414,2.6078 -14.4973,3.0803 -35.4588,2.0292 -33.0826,-1.6589 -41.8993,0.6921 -47.9395,12.7833 -7.3441,14.7013 -4.0952,49.2505 6.8011,72.3239 7.6765,16.2552 27.5225,34.319 42.4741,38.6598 16.0038,4.6463 61.3673,4.0793 80.9223,-1.0114 32.1387,-8.3665 60.7299,-28.1965 83.3067,-57.779 5.5867,-7.3203 19.8816,-29.1613 31.7664,-48.5356 11.8848,-19.3743 21.6087,-33.6096 21.6087,-31.634 0,11.8582 -5.4195,57.7635 -8.568,72.574 -12.5069,58.8324 -53.3507,110.9257 -105.5169,134.5789 -30.1281,13.6608 -57.2648,16.9733 -84.6778,10.3365 z"
   id="path7322" /><path
   style="fill:#ffffff;fill-opacity:0.286275;stroke-width:2.35658"
   d="m 1146.4776,1847.4177 c -63.1913,-8.5066 -125.6756,-48.4823 -160.24198,-102.5181 -31.37439,-49.0461 -43.77572,-92.1093 -43.72965,-151.8495 0.0416,-53.9275 8.15138,-89.294 27.39542,-119.4705 31.21101,-48.9419 98.59301,-110.1151 132.04901,-119.8816 42.9683,-12.5433 124.6131,-13.4885 169.1992,-1.9588 32.7617,8.472 77.1081,34.5524 102.7357,60.4196 28.0382,28.3004 53.9631,74.4272 65.3384,116.2535 6.0036,22.0744 6.3599,26.2628 6.3023,74.0641 -0.071,58.9427 -2.8259,73.2219 -21.1896,109.8339 -33.0558,65.9038 -89.3446,109.9765 -165.8019,129.8187 -18.0681,4.689 -29.7104,6.0054 -59.0338,6.6751 -20.0899,0.4588 -43.9503,-0.1652 -53.0231,-1.3864 z m 107.2245,-22.4519 c 21.9158,-5.7475 55.234,-19.5482 76.5916,-31.7249 42.8329,-24.4204 67.9433,-63.233 86.8272,-134.2065 9.2492,-34.7622 11.7369,-55.793 10.3808,-87.7569 -1.4008,-33.0168 -7.5301,-55.8455 -23.5759,-87.8085 -28.9829,-57.7335 -54.7739,-78.7839 -123.81,-101.0522 -47.7875,-15.4144 -79.9473,-21.1554 -119.4987,-21.3321 l -35.3487,-0.1581 -20.031,9.671 c -35.9391,17.3515 -74.4726,49.5578 -94.3958,78.896 -35.50944,52.29 -59.28417,152.3424 -49.5215,208.4038 7.42133,42.6165 40.4105,94.3892 76.4192,119.9312 33.5036,23.7652 84.1303,43.4542 130.8018,50.8698 19.3081,3.0678 67.2412,0.9669 85.161,-3.7326 z"
   id="path7361" /><path
   style="fill:#ffffff;fill-opacity:0.286275;stroke-width:2.62564"
   d="m 1595.5455,1842.7782 c -4.105,-2.2973 -2.7662,-4.6073 11.5242,-19.8838 26.7862,-28.6345 39.7124,-51.9853 54.7307,-98.8693 11.5895,-36.18 14.2744,-62.8897 12.5666,-125.0123 -2.0168,-73.3628 -12.8083,-141.5733 -28.008,-177.0327 -5.8312,-13.6038 -23.1349,-39.9043 -30.7471,-46.7337 -7.6198,-6.8363 -27.6221,-13.3215 -29.8698,-9.6846 -3.7092,6.0016 -4.9953,-2.3899 -1.7868,-11.6576 l 3.2571,-9.4077 25.1119,21.8932 c 31.5611,27.5159 46.4667,49.2826 61.9898,90.5235 16.5127,43.8703 22.8591,96.8711 18.9935,158.6217 -6.2338,99.5827 -28.6027,163.2674 -75.633,215.3281 -11.401,12.6205 -16.2263,15.2186 -22.1291,11.9152 z"
   id="path7439" /><path
   style="fill:#ffffff;fill-opacity:0.286275;stroke-width:2.62564"
   d="m 1407.8148,1177.5706 c -81.131,-49.7099 -119.1193,-61.0993 -211.881,-63.5252 -82.4858,-2.1571 -117.7338,4.6821 -178.4995,34.6344 -16.0071,7.8901 -36.75139,20.7275 -46.53508,28.7978 -9.70917,8.0088 -18.33208,14.5615 -19.16201,14.5615 -3.23126,0 14.54228,-23.0035 25.76965,-33.3526 21.69222,-19.9952 81.04314,-44.7156 132.42884,-55.1584 32.5213,-6.6091 120.8184,-6.469 164.811,0.2615 68.9551,10.5496 106.759,24.5201 134.2321,49.606 13.7074,12.5163 34.3951,40.245 31.8928,42.7474 -0.5736,0.5736 -15.4492,-7.784 -33.0568,-18.5724 z"
   id="path7478" /></svg>
