<?xml version="1.0" encoding="UTF-8" standalone="no"?>
<!DOCTYPE svg PUBLIC "-//W3C//DTD SVG 1.1//EN" "http://www.w3.org/Graphics/SVG/1.1/DTD/svg11.dtd">
<!-- Created with Vectornator (http://vectornator.io/) -->
<svg height="100%" stroke-miterlimit="10" style="fill-rule:nonzero;clip-rule:evenodd;stroke-linecap:round;stroke-linejoin:round;" version="1.1" viewBox="0 0 1000 1000" width="100%" xml:space="preserve" xmlns="http://www.w3.org/2000/svg" xmlns:vectornator="http://vectornator.io" xmlns:xlink="http://www.w3.org/1999/xlink">
<defs>
<clipPath id="TextBounds">
<rect height="78.6915" width="61.09" x="571.669" y="370.04"/>
</clipPath>
</defs>
<g id="Untitled" vectornator:layerName="Untitled">
<g opacity="1">
<path d="M573.681 211.692C732.094 211.692 862.3 334.441 874.747 489.526L923.681 489.526C921.194 450.545 912.07 413.222 897.14 377.559C879.724 336.091 854.012 297.938 821.667 266.423C789.321 234.077 752 209.196 710.529 190.948C666.571 172.702 620.955 162.749 573.681 162.749C526.407 162.749 480.791 171.873 436.834 190.119C395.365 207.536 357.213 233.248 325.695 265.594C293.349 297.941 268.468 335.262 250.222 376.73C235.293 412.393 226.171 450.545 223.681 488.697L272.616 488.697C285.056 334.433 415.269 211.672 573.681 211.672L573.681 211.692ZM573.681 815.486C415.269 815.486 285.063 692.736 272.616 537.651L223.681 537.651C226.169 576.632 235.293 613.956 250.222 649.618C267.639 691.087 293.351 729.239 325.695 760.754C358.042 793.101 395.363 817.982 436.834 836.23C479.962 854.476 525.578 863.6 573.681 863.6C621.787 863.6 666.571 854.476 710.529 836.23C751.998 818.813 790.15 793.101 821.667 760.754C854.014 728.408 878.894 691.087 897.14 649.618C912.07 613.956 921.192 575.803 923.681 537.651L874.747 537.651C862.307 692.745 732.094 815.486 573.681 815.486Z" fill="#165016" fill-rule="nonzero" opacity="1" stroke="none"/>
<path d="M445.228 519.794L702.161 519.794C703.608 519.794 704.782 520.968 704.782 522.415L704.782 527.15C704.782 528.598 703.608 529.772 702.161 529.772L445.228 529.772C443.78 529.772 442.606 528.598 442.606 527.15L442.606 522.415C442.606 520.968 443.78 519.794 445.228 519.794Z" fill="#165016" fill-rule="nonzero" opacity="1" stroke="#000000" stroke-linecap="butt" stroke-linejoin="miter" stroke-opacity="0" stroke-width="0"/>
<path d="M519.606 649.294C519.606 644.71 518.536 640.823 516.395 637.632C514.254 634.462 510.881 631.655 506.276 629.212C501.651 626.769 494.683 624.265 485.373 621.7C476.042 619.136 469.054 616.551 464.408 613.946C459.743 611.341 456.33 608.312 454.169 604.859C451.987 601.406 450.897 597.216 450.897 592.289C450.897 584.434 454.199 578.083 460.803 573.237C467.408 568.37 476.011 565.937 486.615 565.937C493.522 565.937 499.722 567.29 505.216 569.996C510.73 572.682 514.981 576.448 517.97 581.294C520.98 586.16 522.484 591.643 522.484 597.741L518.516 597.741C518.516 589.704 515.557 583.061 509.639 577.811C503.721 572.56 496.047 569.935 486.615 569.935C477.163 569.935 469.508 572.045 463.651 576.266C457.814 580.486 454.896 585.777 454.896 592.137C454.896 598.599 457.43 603.799 462.5 607.737C467.589 611.674 475.981 615.158 487.675 618.186C499.349 621.215 507.902 624.729 513.335 628.727C520.222 633.816 523.666 640.621 523.666 649.142C523.666 654.574 522.141 659.37 519.091 663.53C516.041 667.69 511.699 670.91 506.064 673.192C500.45 675.454 494.138 676.585 487.13 676.585C479.354 676.585 472.356 675.292 466.135 672.708C459.915 670.103 455.239 666.417 452.109 661.652C448.978 656.866 447.413 651.222 447.413 644.72L451.412 644.72C451.412 653.544 454.714 660.39 461.318 665.256C467.943 670.143 476.547 672.586 487.13 672.586C496.562 672.586 504.327 670.426 510.427 666.104C516.546 661.803 519.606 656.2 519.606 649.294ZM613.461 675.1L601.403 642.933L548.659 642.933L536.693 675.1L532.33 675.1L572.623 567.421L577.53 567.421L617.823 675.1L613.461 675.1ZM575.077 572.237L550.144 638.935L599.919 638.935L575.077 572.237ZM703.922 675.1L691.864 642.933L639.121 642.933L627.124 675.1L622.761 675.1L663.084 567.421L667.961 567.421L708.284 675.1L703.922 675.1ZM665.538 572.237L640.605 638.935L690.38 638.935L665.538 572.237Z" fill="#165016" fill-rule="nonzero" opacity="1" stroke="none"/>
<path d="M449.328 728.199C447.763 728.199 446.463 727.864 445.426 727.193C444.384 726.523 443.595 725.596 443.059 724.412C442.523 723.227 442.21 721.853 442.12 720.289L445.472 719.384C445.54 720.345 445.691 721.272 445.928 722.166C446.161 723.06 446.545 723.79 447.082 724.358C447.618 724.93 448.367 725.216 449.328 725.216C450.311 725.216 451.055 724.941 451.56 724.391C452.061 723.846 452.311 723.06 452.311 722.032C452.311 720.803 452.032 719.813 451.473 719.062C450.914 718.316 450.21 717.563 449.361 716.803L444.802 712.781C443.908 711.999 443.249 711.143 442.824 710.214C442.4 709.289 442.187 708.145 442.187 706.782C442.187 704.793 442.757 703.251 443.897 702.156C445.037 701.061 446.59 700.514 448.557 700.514C449.629 700.514 450.575 700.653 451.393 700.93C452.206 701.211 452.885 701.642 453.431 702.223C453.98 702.804 454.418 703.537 454.745 704.422C455.067 705.302 455.283 706.335 455.395 707.519L452.177 708.39C452.11 707.497 451.976 706.677 451.775 705.93C451.574 705.18 451.223 704.574 450.722 704.114C450.217 703.658 449.495 703.43 448.557 703.43C447.618 703.43 446.887 703.68 446.364 704.181C445.837 704.686 445.573 705.43 445.573 706.413C445.573 707.24 445.714 707.921 445.995 708.458C446.273 708.994 446.724 709.541 447.35 710.1L451.942 714.122C452.97 715.016 453.875 716.082 454.658 717.319C455.44 718.562 455.831 720.032 455.831 721.73C455.831 723.071 455.552 724.226 454.993 725.196C454.434 726.17 453.67 726.914 452.7 727.428C451.726 727.942 450.601 728.199 449.328 728.199ZM461.798 727.897L458.479 727.897L458.479 708.525L461.798 708.525L461.798 710.368C462.446 709.631 463.161 709.083 463.943 708.726C464.726 708.368 465.53 708.189 466.357 708.189C467.072 708.189 467.713 708.368 468.281 708.726C468.853 709.083 469.262 709.72 469.508 710.636C470.201 709.787 470.954 709.166 471.767 708.773C472.585 708.384 473.441 708.189 474.335 708.189C474.961 708.189 475.531 708.339 476.045 708.639C476.559 708.942 476.972 709.423 477.285 710.08C477.598 710.741 477.755 711.608 477.755 712.681L477.755 727.897L474.469 727.897L474.469 712.915C474.469 711.977 474.317 711.344 474.013 711.018C473.714 710.696 473.307 710.536 472.793 710.536C472.302 710.536 471.788 710.674 471.251 710.951C470.715 711.233 470.223 711.619 469.776 712.111C469.776 712.2 469.776 712.29 469.776 712.379C469.776 712.468 469.776 712.569 469.776 712.681L469.776 727.897L466.491 727.897L466.491 712.915C466.491 711.977 466.339 711.344 466.035 711.018C465.736 710.696 465.329 710.536 464.815 710.536C464.323 710.536 463.814 710.674 463.286 710.951C462.763 711.233 462.267 711.619 461.798 712.111L461.798 727.897ZM484.761 728.165C484.001 728.165 483.33 727.947 482.749 727.509C482.168 727.075 481.71 726.516 481.375 725.833C481.04 725.153 480.872 724.434 480.872 723.674C480.872 722.468 481.073 721.451 481.476 720.624C481.878 719.797 482.43 719.098 483.132 718.526C483.838 717.958 484.653 717.462 485.579 717.038C486.504 716.613 487.483 716.2 488.515 715.798L488.515 714.424C488.515 713.641 488.471 712.993 488.381 712.48C488.292 711.966 488.106 711.579 487.825 711.32C487.548 711.065 487.13 710.938 486.571 710.938C486.079 710.938 485.682 711.05 485.378 711.273C485.078 711.496 484.861 711.814 484.727 712.225C484.593 712.64 484.526 713.128 484.526 713.686L484.526 714.658L480.973 714.524C481.017 712.379 481.509 710.797 482.448 709.778C483.386 708.764 484.837 708.256 486.799 708.256C488.725 708.256 490.091 708.782 490.895 709.832C491.7 710.882 492.102 712.401 492.102 714.39L492.102 723.238C492.102 723.842 492.118 724.423 492.149 724.981C492.185 725.54 492.23 726.061 492.283 726.543C492.341 727.021 492.393 727.473 492.437 727.897L489.145 727.897C489.083 727.54 489 727.088 488.897 726.543C488.799 725.994 488.728 725.495 488.683 725.048C488.459 725.808 488.028 726.519 487.389 727.18C486.754 727.837 485.878 728.165 484.761 728.165ZM486.169 725.082C486.526 725.082 486.862 724.981 487.174 724.78C487.483 724.579 487.762 724.349 488.012 724.09C488.258 723.835 488.426 723.63 488.515 723.473L488.515 717.976C487.957 718.289 487.431 718.602 486.94 718.915C486.448 719.228 486.017 719.556 485.646 719.9C485.279 720.249 484.989 720.64 484.774 721.073C484.56 721.511 484.452 722.01 484.452 722.568C484.452 723.35 484.6 723.965 484.895 724.412C485.185 724.858 485.61 725.082 486.169 725.082ZM499.236 727.897L495.649 727.897L495.649 708.525L499.236 708.525L499.236 711.273C499.951 710.089 500.666 709.295 501.381 708.893C502.096 708.491 502.811 708.29 503.527 708.29C503.616 708.29 503.701 708.29 503.781 708.29C503.857 708.29 503.962 708.301 504.097 708.323L504.097 712.278C503.828 712.167 503.522 712.071 503.178 711.99C502.829 711.914 502.476 711.876 502.119 711.876C501.56 711.876 501.053 712.004 500.597 712.258C500.136 712.518 499.683 713.016 499.236 713.753L499.236 727.897ZM511.471 728.165C510.466 728.165 509.657 727.976 509.044 727.596C508.428 727.216 507.981 726.68 507.704 725.987C507.422 725.294 507.281 724.479 507.281 723.54L507.281 710.904L505.236 710.904L505.236 708.525L507.281 708.525L507.281 702.86L510.868 702.86L510.868 708.525L513.986 708.525L513.986 710.904L510.868 710.904L510.868 723.306C510.868 724.065 510.991 724.608 511.237 724.934C511.483 725.256 511.952 725.417 512.645 725.417C512.824 725.417 513.031 725.406 513.268 725.384C513.501 725.361 513.729 725.339 513.952 725.317L513.952 727.964C513.505 728.031 513.092 728.083 512.712 728.119C512.332 728.15 511.918 728.165 511.471 728.165ZM526.691 727.897L523.137 727.897L528.903 700.749L532.557 700.749L538.356 727.897L534.77 727.897L533.529 721.06L527.998 721.06L526.691 727.897ZM530.747 706.111L528.501 718.345L533.026 718.345L530.747 706.111ZM545.825 733.897C544.663 733.897 543.613 733.774 542.674 733.528C541.735 733.282 540.998 732.891 540.462 732.355C539.925 731.819 539.657 731.115 539.657 730.244C539.657 729.618 539.791 729.07 540.059 728.601C540.328 728.132 540.674 727.723 541.099 727.374C541.523 727.03 541.97 726.747 542.439 726.523C541.814 726.344 541.344 726.058 541.032 725.665C540.719 725.276 540.562 724.87 540.562 724.445C540.562 723.73 540.752 723.116 541.132 722.602C541.512 722.088 542.037 721.529 542.708 720.926C541.97 720.367 541.411 719.652 541.032 718.781C540.652 717.909 540.462 716.703 540.462 715.161C540.462 713.641 540.669 712.372 541.085 711.353C541.496 710.339 542.111 709.568 542.929 709.041C543.742 708.518 544.741 708.256 545.926 708.256C546.976 708.256 547.821 708.435 548.46 708.793C549.095 709.15 549.58 709.686 549.915 710.402C550.027 710.223 550.328 709.914 550.82 709.476C551.312 709.043 551.882 708.681 552.53 708.39L553.066 708.156L553.971 710.469C553.681 710.513 553.296 710.618 552.818 710.784C552.335 710.953 551.888 711.121 551.477 711.286C551.061 711.456 550.798 711.597 550.686 711.709C550.842 712.089 550.983 712.636 551.108 713.351C551.229 714.066 551.289 714.703 551.289 715.261C551.289 716.58 551.122 717.742 550.787 718.747C550.451 719.753 549.899 720.539 549.131 721.107C548.357 721.679 547.289 721.965 545.926 721.965C545.635 721.965 545.322 721.943 544.987 721.898C544.652 721.853 544.35 721.797 544.082 721.73C543.948 721.931 543.809 722.166 543.666 722.434C543.519 722.702 543.445 722.959 543.445 723.205C543.445 723.451 543.575 723.645 543.834 723.788C544.089 723.936 544.496 724.032 545.054 724.076L548.071 724.345C549.591 724.479 550.72 724.937 551.457 725.719C552.194 726.501 552.563 727.618 552.563 729.07C552.563 730.121 552.317 731.01 551.826 731.738C551.334 732.462 550.592 733.003 549.6 733.361C548.603 733.718 547.345 733.897 545.825 733.897ZM546.093 731.081C547.367 731.081 548.306 730.932 548.909 730.632C549.513 730.328 549.814 729.841 549.814 729.171C549.814 728.769 549.743 728.434 549.6 728.165C549.452 727.897 549.189 727.685 548.809 727.529C548.429 727.372 547.881 727.261 547.166 727.193L544.116 726.925C543.87 727.171 543.635 727.417 543.412 727.663C543.188 727.909 543.009 728.172 542.875 728.454C542.741 728.731 542.674 729.026 542.674 729.339C542.674 729.92 542.92 730.355 543.412 730.646C543.903 730.936 544.797 731.081 546.093 731.081ZM545.926 719.451C546.44 719.451 546.849 719.355 547.153 719.163C547.452 718.975 547.68 718.696 547.837 718.325C547.993 717.958 548.1 717.507 548.158 716.971C548.212 716.435 548.239 715.831 548.239 715.161C548.239 714.491 548.212 713.881 548.158 713.331C548.1 712.786 548 712.316 547.857 711.923C547.709 711.534 547.486 711.239 547.186 711.038C546.882 710.837 546.473 710.737 545.959 710.737C545.468 710.737 545.061 710.837 544.739 711.038C544.413 711.239 544.171 711.523 544.015 711.89C543.859 712.261 543.747 712.719 543.68 713.264C543.613 713.814 543.579 714.446 543.579 715.161C543.579 715.764 543.608 716.327 543.666 716.85C543.72 717.378 543.832 717.831 544.002 718.211C544.167 718.591 544.406 718.892 544.719 719.116C545.032 719.339 545.434 719.451 545.926 719.451ZM559.067 727.897L555.48 727.897L555.48 708.525L559.067 708.525L559.067 711.273C559.782 710.089 560.497 709.295 561.212 708.893C561.927 708.491 562.642 708.29 563.357 708.29C563.447 708.29 563.532 708.29 563.612 708.29C563.688 708.29 563.793 708.301 563.927 708.323L563.927 712.278C563.659 712.167 563.353 712.071 563.009 711.99C562.66 711.914 562.307 711.876 561.95 711.876C561.391 711.876 560.884 712.004 560.428 712.258C559.967 712.518 559.514 713.016 559.067 713.753L559.067 727.897ZM569.961 727.897L566.374 727.897L566.374 708.525L569.961 708.525L569.961 727.897ZM569.961 705.642L566.374 705.642L566.374 701.888L569.961 701.888L569.961 705.642ZM579.113 728.165C577.526 728.165 576.324 727.846 575.506 727.207C574.693 726.572 574.145 725.674 573.863 724.512C573.586 723.35 573.448 721.998 573.448 720.457L573.448 715.999C573.448 714.368 573.593 712.976 573.884 711.823C574.174 710.674 574.726 709.792 575.54 709.175C576.357 708.563 577.549 708.256 579.113 708.256C580.521 708.256 581.609 708.484 582.378 708.94C583.151 709.4 583.683 710.082 583.974 710.985C584.264 711.892 584.41 713.016 584.41 714.357L584.41 715.496L581.158 715.496L581.158 714.323C581.158 713.474 581.102 712.804 580.99 712.312C580.879 711.82 580.677 711.463 580.387 711.239C580.096 711.016 579.683 710.904 579.147 710.904C578.565 710.904 578.119 711.038 577.806 711.306C577.493 711.575 577.285 712.026 577.182 712.661C577.084 713.3 577.035 714.167 577.035 715.261L577.035 721.362C577.035 723.015 577.191 724.121 577.504 724.68C577.817 725.238 578.376 725.518 579.18 725.518C579.783 725.518 580.224 725.379 580.501 725.102C580.782 724.82 580.961 724.423 581.037 723.909C581.118 723.395 581.158 722.814 581.158 722.166L581.158 720.591L584.41 720.591L584.41 721.931C584.41 723.227 584.258 724.345 583.954 725.283C583.654 726.222 583.118 726.937 582.345 727.428C581.576 727.92 580.499 728.165 579.113 728.165ZM590.37 728.165C589.61 728.165 589.018 727.964 588.593 727.562C588.169 727.16 587.874 726.657 587.708 726.054C587.538 725.451 587.453 724.836 587.453 724.21L587.453 708.525L591.04 708.525L591.04 723.138C591.04 723.831 591.141 724.374 591.342 724.767C591.543 725.156 591.957 725.35 592.582 725.35C592.985 725.35 593.405 725.232 593.843 724.995C594.276 724.762 594.694 724.479 595.096 724.143L595.096 708.525L598.683 708.525L598.683 727.897L595.096 727.897L595.096 725.987C594.471 726.59 593.762 727.104 592.971 727.529C592.176 727.953 591.308 728.165 590.37 728.165ZM606.259 727.897L602.673 727.897L602.673 700.749L606.259 700.749L606.259 727.897ZM615.176 728.165C614.171 728.165 613.36 727.976 612.743 727.596C612.13 727.216 611.683 726.68 611.402 725.987C611.125 725.294 610.986 724.479 610.986 723.54L610.986 710.904L608.941 710.904L608.941 708.525L610.986 708.525L610.986 702.86L614.573 702.86L614.573 708.525L617.691 708.525L617.691 710.904L614.573 710.904L614.573 723.306C614.573 724.065 614.696 724.608 614.942 724.934C615.188 725.256 615.657 725.417 616.35 725.417C616.529 725.417 616.734 725.406 616.967 725.384C617.203 725.361 617.434 725.339 617.657 725.317L617.657 727.964C617.21 728.031 616.797 728.083 616.417 728.119C616.037 728.15 615.623 728.165 615.176 728.165ZM623.121 728.165C622.361 728.165 621.769 727.964 621.345 727.562C620.92 727.16 620.623 726.657 620.453 726.054C620.287 725.451 620.205 724.836 620.205 724.21L620.205 708.525L623.792 708.525L623.792 723.138C623.792 723.831 623.892 724.374 624.093 724.767C624.295 725.156 624.708 725.35 625.334 725.35C625.736 725.35 626.154 725.232 626.587 724.995C627.025 724.762 627.446 724.479 627.848 724.143L627.848 708.525L631.435 708.525L631.435 727.897L627.848 727.897L627.848 725.987C627.222 726.59 626.511 727.104 625.716 727.529C624.925 727.953 624.06 728.165 623.121 728.165ZM638.77 727.897L635.183 727.897L635.183 708.525L638.77 708.525L638.77 711.273C639.485 710.089 640.2 709.295 640.915 708.893C641.63 708.491 642.345 708.29 643.06 708.29C643.15 708.29 643.235 708.29 643.315 708.29C643.391 708.29 643.496 708.301 643.63 708.323L643.63 712.278C643.362 712.167 643.056 712.071 642.712 711.99C642.363 711.914 642.01 711.876 641.652 711.876C641.094 711.876 640.586 712.004 640.131 712.258C639.67 712.518 639.216 713.016 638.77 713.753L638.77 727.897ZM651.206 728.165C649.687 728.165 648.513 727.868 647.686 727.274C646.86 726.684 646.285 725.813 645.963 724.66C645.637 723.511 645.474 722.099 645.474 720.423L645.474 715.999C645.474 714.278 645.642 712.848 645.977 711.709C646.312 710.569 646.9 709.709 647.74 709.128C648.576 708.547 649.731 708.256 651.206 708.256C652.838 708.256 654.04 708.592 654.813 709.262C655.582 709.932 656.089 710.898 656.335 712.158C656.581 713.423 656.704 714.937 656.704 716.703L656.704 718.278L649.061 718.278L649.061 722.166C649.061 722.948 649.135 723.585 649.282 724.076C649.425 724.568 649.66 724.93 649.986 725.162C650.308 725.399 650.726 725.518 651.24 725.518C651.776 725.518 652.185 725.388 652.467 725.129C652.744 724.874 652.934 724.505 653.037 724.023C653.135 723.545 653.184 722.982 653.184 722.334L653.184 721.16L656.671 721.16L656.671 721.898C656.671 723.842 656.257 725.372 655.43 726.49C654.603 727.607 653.195 728.165 651.206 728.165ZM649.061 715.295L649.061 716.334L653.184 716.334L653.184 714.591C653.184 713.787 653.139 713.11 653.05 712.56C652.961 712.015 652.777 711.601 652.5 711.32C652.219 711.043 651.776 710.904 651.173 710.904C650.592 710.904 650.152 711.038 649.852 711.306C649.548 711.575 649.34 712.026 649.229 712.661C649.117 713.3 649.061 714.178 649.061 715.295ZM670.012 727.897L666.459 727.897L672.225 700.749L675.879 700.749L681.678 727.897L678.091 727.897L676.851 721.06L671.32 721.06L670.012 727.897ZM674.069 706.111L671.823 718.345L676.348 718.345L674.069 706.111ZM687.94 727.897L684.353 727.897L684.353 708.525L687.94 708.525L687.94 727.897ZM687.94 705.642L684.353 705.642L684.353 701.888L687.94 701.888L687.94 705.642ZM696.287 728.165C694.656 728.165 693.438 727.569 692.633 726.376C691.829 725.178 691.427 723.149 691.427 720.289L691.427 716.535C691.427 715.06 691.549 713.691 691.795 712.426C692.041 711.166 692.506 710.156 693.19 709.396C693.869 708.636 694.868 708.256 696.187 708.256C696.835 708.256 697.427 708.402 697.963 708.692C698.5 708.983 698.98 709.34 699.405 709.765L699.405 700.749L702.992 700.749L702.992 727.897L699.405 727.897L699.405 726.657C698.98 727.104 698.518 727.466 698.017 727.743C697.512 728.025 696.935 728.165 696.287 728.165ZM697.192 725.35C697.528 725.35 697.885 725.287 698.265 725.162C698.645 725.042 699.025 724.858 699.405 724.613L699.405 711.91C699.092 711.686 698.746 711.49 698.366 711.32C697.986 711.155 697.572 711.072 697.125 711.072C696.298 711.072 695.74 711.467 695.449 712.258C695.159 713.054 695.013 714.01 695.013 715.127L695.013 720.591C695.013 721.484 695.065 722.293 695.168 723.017C695.266 723.746 695.472 724.316 695.784 724.727C696.097 725.142 696.567 725.35 697.192 725.35Z" fill="#165016" fill-rule="nonzero" opacity="1" stroke="none"/>
<path d="M633.61 202.493C633.681 202.67 633.811 203.021 633.891 203.231C634.343 203.335 634.774 203.4 635.227 203.506C635.9 203.664 636.425 203.821 637.086 203.979C637.175 203.802 637.248 203.66 637.34 203.477C636.099 203.131 634.852 202.831 633.61 202.493ZM659.059 208.198C659.277 208.821 659.503 209.483 659.751 210.186C660.409 210.393 661.137 210.598 661.774 210.805C662.039 210.139 662.365 209.321 662.635 208.68C661.629 208.533 660.16 208.379 659.059 208.198ZM616.547 235.553C616.003 236.714 615.462 237.876 614.918 239.037C613.766 241.499 613.19 244.422 613.19 247.807C613.19 251.191 612.468 253.651 611.027 255.19C609.587 256.728 608.867 258.574 608.867 260.727C608.867 262.88 609.587 264.881 611.027 266.727C612.468 268.573 613.19 270.418 613.19 272.264C613.19 274.11 612.901 275.34 612.324 275.955C611.748 276.571 610.165 276.879 607.572 276.879C604.98 276.879 602.674 275.187 600.658 271.803C599.65 270.111 598.641 268.419 597.633 266.727C596.769 268.265 595.905 269.801 595.041 271.34C593.313 274.416 592.447 277.032 592.447 279.186C592.447 281.339 593.167 283.338 594.607 285.184C595.327 286.107 596.05 287.03 596.77 287.953C596.914 287.646 597.057 287.339 597.201 287.031C597.489 286.416 597.056 285.184 595.904 283.338C594.752 281.492 594.608 279.031 595.473 275.955C595.905 274.417 596.337 272.878 596.77 271.34C598.354 272.878 599.938 274.417 601.522 275.955C604.69 279.031 607.283 280.417 609.299 280.109C611.315 279.802 613.044 279.031 614.485 277.801C615.925 276.571 616.791 275.34 617.078 274.11C617.366 272.879 616.358 270.419 614.053 266.727C611.748 263.035 611.029 260.42 611.893 258.881C612.757 257.343 614.486 255.959 617.078 254.729C618.375 254.113 619.671 253.499 620.967 252.883C620.391 254.883 619.815 256.881 619.238 258.881C618.662 260.881 618.086 262.881 617.51 264.881C618.518 265.188 619.527 265.496 620.535 265.803C621.544 266.11 622.55 266.419 623.559 266.727C622.839 266.265 622.118 265.803 621.399 265.342C619.958 264.419 619.958 261.958 621.399 257.959C622.839 253.96 622.695 250.576 620.967 247.807C619.238 245.038 618.373 242.423 618.373 239.961C618.373 237.5 618.086 236.116 617.51 235.809C617.409 235.755 617.306 235.699 617.205 235.645C616.911 235.603 616.832 235.594 616.547 235.553L616.547 235.553ZM725.593 238.59C725.613 238.707 725.631 238.824 725.649 238.942C725.73 239.003 725.894 239.14 725.96 239.188C725.912 239.047 725.861 238.904 725.811 238.762C725.701 238.673 725.7 238.676 725.593 238.59ZM628.75 278.725L628.75 287.032L632.639 287.032C635.231 287.032 637.537 289.339 639.553 293.953C640.561 296.261 641.57 298.568 642.578 300.875C642.723 300.26 642.866 299.645 643.01 299.03C643.298 297.799 642.722 295.337 641.281 291.645C639.841 287.953 637.825 285.954 635.233 285.647C632.64 285.339 630.911 284.109 630.047 281.955C629.615 280.878 629.182 279.802 628.75 278.725L628.75 278.725ZM617.084 284.262C615.643 284.262 614.347 284.416 613.195 284.723C612.619 284.877 612.043 285.03 611.467 285.184C611.754 285.645 612.042 286.107 612.33 286.569C612.906 287.492 614.345 287.953 616.65 287.953L620.107 287.953C619.963 287.338 619.82 286.723 619.676 286.108C619.388 284.878 618.524 284.262 617.084 284.262ZM587.268 293.491C587.412 295.798 587.557 298.105 587.701 300.412C587.846 302.72 587.989 305.027 588.133 307.334C588.421 305.181 588.709 303.028 588.996 300.875C589.573 296.568 589.429 294.261 588.565 293.953C588.132 293.799 587.7 293.645 587.268 293.491ZM605.416 296.26C605.704 296.722 605.993 297.183 606.281 297.645C606.858 298.568 608.586 299.489 611.467 300.412C614.347 301.335 616.796 301.644 618.812 301.336C620.829 301.029 622.701 300.26 624.43 299.03C625.294 298.414 626.157 297.799 627.022 297.184C624.429 297.491 621.837 297.798 619.244 298.106C614.059 298.721 610.458 298.568 608.442 297.645C607.433 297.183 606.425 296.721 605.416 296.26L605.416 296.26ZM563.07 298.106C562.206 299.644 561.342 301.182 560.478 302.721C558.75 305.797 557.165 309.95 555.724 315.179C554.284 320.41 553.853 326.41 554.429 333.177C555.006 339.945 557.021 345.791 560.478 350.712C563.935 355.634 567.104 359.172 569.984 361.325C572.865 363.478 576.466 365.479 580.787 367.325C585.108 369.171 588.565 371.478 591.158 374.247C593.751 377.016 596.054 380.4 598.07 384.399C600.086 388.398 601.528 392.398 602.392 396.398C602.97 399.071 603.189 401.313 602.957 403.089C603.802 402.889 603.157 403.042 605.715 402.447C606.2 402.334 606.685 402.213 607.17 402.097C606.981 401.714 606.795 401.333 606.713 401.011C605.849 397.627 606.425 393.784 608.441 389.476C610.458 385.168 612.763 381.785 615.355 379.323C617.948 376.862 623.278 374.708 631.344 372.862C639.409 371.016 645.17 368.709 648.627 365.94C652.084 363.172 654.532 360.094 655.973 356.71C657.414 353.326 657.989 348.249 657.702 341.481C657.557 338.097 657.414 334.716 657.27 331.331L652.084 334.099C648.628 335.944 644.307 337.636 639.121 339.175C633.936 340.713 629.902 342.559 627.021 344.712C624.141 346.865 621.981 349.172 620.541 351.634C619.1 354.095 618.092 357.326 617.515 361.325C617.227 363.325 616.938 365.325 616.65 367.325C618.523 365.633 620.396 363.941 622.269 362.249C626.014 358.864 628.75 357.017 630.478 356.71C631.342 356.556 632.206 356.403 633.07 356.249L625.293 363.171C620.107 367.785 615.354 373.323 611.033 379.784L604.552 389.476C603.544 386.091 602.535 382.708 601.527 379.323C599.511 372.555 595.909 364.711 590.724 355.788C585.539 346.867 583.091 342.097 583.379 341.482C583.523 341.175 583.668 340.867 583.812 340.56L587.267 344.252C589.572 346.713 592.453 351.327 595.91 358.095C597.638 361.479 599.367 364.863 601.095 368.247C601.528 366.709 601.96 365.171 602.392 363.632C603.257 360.556 603.687 356.865 603.687 352.558C603.687 348.25 603.257 344.558 602.392 341.481C601.528 338.405 599.511 334.714 596.342 330.407C593.173 326.1 588.997 322.101 583.812 318.409C578.626 314.717 573.873 310.409 569.552 305.487C567.391 303.026 565.23 300.566 563.069 298.104L563.07 298.106ZM633.936 301.797C633.791 304.104 633.648 306.412 633.504 308.719C633.216 313.334 632.351 316.871 630.91 319.332C629.47 321.794 625.293 323.332 618.379 323.948C611.465 324.563 606.857 323.948 604.552 322.102C602.248 320.256 600.663 318.257 599.799 316.104C599.366 315.027 598.936 313.95 598.504 312.873L598.504 316.104C598.504 318.257 598.934 320.256 599.799 322.102C600.663 323.948 602.535 326.101 605.416 328.563C608.296 331.024 612.041 332.254 616.65 332.254C621.259 332.254 625.437 330.101 629.182 325.793C632.926 321.486 634.655 316.41 634.367 310.565C634.223 307.642 634.08 304.72 633.936 301.797L633.936 301.797ZM535.17 425.818C533.496 425.818 531.812 425.856 530.12 425.933C526.735 426.087 523.315 426.393 519.858 426.855C512.944 427.778 505.166 429.931 496.524 433.316C487.882 436.7 483.56 439.007 483.56 440.238C483.56 441.468 486.152 448.237 491.338 460.542C496.523 472.848 499.548 479.155 500.412 479.462C501.276 479.769 504.301 478.386 509.486 475.31C514.672 472.233 518.706 470.694 521.586 470.694C524.466 470.694 536.277 474.541 557.018 482.232C577.759 489.922 589.425 493.769 592.018 493.769C594.611 493.769 596.916 493.307 598.932 492.384C600.949 491.461 615.928 482.386 643.87 465.157C671.812 447.929 685.784 438.085 685.784 435.624C685.784 433.163 685.208 431.316 684.056 430.085C682.904 428.855 681.464 427.933 679.736 427.318C678.007 426.702 675.269 426.702 671.525 427.318C667.78 427.933 660.434 431.162 649.487 437.007C638.54 442.852 629.755 447.006 623.129 449.469C616.503 451.93 613.335 455.621 613.623 460.543C613.911 465.465 613.622 468.388 612.758 469.31C611.894 470.233 610.021 470.695 607.141 470.695C604.26 470.695 597.634 469.927 587.263 468.389C576.893 466.85 568.97 465.005 563.497 462.851C558.024 460.698 554.569 459.006 553.128 457.775C552.408 457.16 551.687 456.543 550.967 455.928L561.337 460.082C568.251 462.851 578.335 465.004 591.585 466.543C604.836 468.081 611.75 468.234 612.325 467.004C612.902 465.773 613.045 463.928 612.757 461.467C612.469 459.005 611.316 456.543 609.3 454.082C607.825 452.281 603.587 449.891 596.714 446.937C596.709 446.937 596.704 446.938 596.7 446.932C594.183 445.85 591.367 444.704 588.127 443.469C576.029 438.854 566.668 434.855 560.041 431.47C553.415 428.086 546.79 426.241 540.164 425.933C538.507 425.856 536.842 425.818 535.168 425.818L535.17 425.818ZM475.33 432.724C474.992 432.714 474.612 432.738 474.189 432.796C471.651 433.142 467.572 434.701 461.955 437.47C454.465 441.162 450.432 444.084 449.855 446.238C449.279 448.391 452.593 458.081 459.795 475.31C466.996 492.538 471.461 501.46 473.189 502.076C474.918 502.691 479.527 501.152 487.017 497.46C494.507 493.769 498.684 491 499.549 489.154C500.413 487.308 497.242 477.617 490.041 460.082C482.84 442.546 478.231 433.471 476.215 432.855C475.963 432.778 475.668 432.734 475.33 432.724L475.33 432.724ZM572.674 434.533C572.659 434.554 572.653 434.568 572.637 434.589C572.651 434.572 572.664 434.555 572.678 434.538C572.677 434.536 572.676 434.535 572.675 434.533L572.674 434.533ZM622.345 435.202C622.332 435.205 622.322 435.207 622.31 435.21C622.321 435.21 622.333 435.21 622.345 435.21C622.344 435.208 622.345 435.205 622.345 435.202ZM623.501 438.314C623.464 438.312 623.42 438.315 623.409 438.335C623.407 438.342 623.401 438.348 623.398 438.355C623.445 438.345 623.501 438.34 623.546 438.329C623.568 438.325 623.538 438.316 623.501 438.314L623.501 438.314ZM594.028 442.171L594.028 442.173C594.057 442.195 594.08 442.2 594.108 442.22C594.108 442.212 594.109 442.205 594.108 442.196C594.082 442.188 594.055 442.18 594.028 442.171ZM594.765 442.413C594.767 442.428 594.767 442.444 594.768 442.458C594.804 442.45 594.859 442.478 594.886 442.452C594.845 442.439 594.805 442.427 594.765 442.413L594.765 442.413ZM596.085 443.843C596.086 443.85 596.086 443.858 596.087 443.866C596.132 443.893 596.185 443.914 596.241 443.931C596.218 443.906 596.2 443.882 596.179 443.857C596.147 443.853 596.117 443.847 596.085 443.843L596.085 443.843ZM620.619 447.081C620.632 447.118 620.643 447.154 620.656 447.191C620.669 447.192 620.682 447.193 620.695 447.193C620.683 447.16 620.672 447.127 620.66 447.095C620.646 447.091 620.633 447.085 620.619 447.081L620.619 447.081Z" fill="#165016" fill-rule="nonzero" opacity="1" stroke="none"/>
<path clip-path="url(#TextBounds)" d="M618.362 402.757L634.474 402.757L632.268 410.887L630.638 411.042C630.67 411.042 630.694 411.47 630.71 412.326C630.726 413.182 630.734 414.381 630.734 415.924C630.734 417.467 630.702 419.302 630.638 421.429C630.574 423.555 630.478 425.889 630.35 428.431C630.126 432.736 629.95 437.183 629.823 441.773C629.695 446.364 629.631 451.032 629.631 455.777L622.486 455.777L622.294 448.581L622.582 448.698C619.449 444.885 616.556 441.592 613.902 438.817C611.249 436.042 608.819 433.734 606.613 431.893C601.051 427.147 594.913 423.037 588.2 419.562C587.72 420.08 587.169 420.78 586.545 421.662C585.922 422.544 585.275 423.542 584.603 424.657L584.651 424.657C584.555 424.865 584.443 425.079 584.316 425.299C584.188 425.52 584.044 425.747 583.884 425.98L582.637 428.197C585.099 428.638 587.456 429.28 589.71 430.123C591.964 430.966 593.906 431.984 595.536 433.177C597.391 434.473 598.997 435.835 600.356 437.261C601.714 438.687 602.905 440.217 603.928 441.851L601.435 443.874C599.964 442.759 598.318 441.722 596.495 440.762C594.673 439.803 592.771 438.973 590.789 438.272C588.807 437.572 586.793 437.028 584.747 436.639C582.701 436.25 580.735 436.055 578.849 436.055C578.018 436.055 576.987 436.126 575.756 436.269C574.525 436.412 573.095 436.626 571.464 436.911L573.143 433.566C573.398 433.125 573.638 432.671 573.862 432.204C574.086 431.737 574.309 431.27 574.533 430.804C575.748 428.444 576.891 426.35 577.962 424.521C579.033 422.693 580.016 421.079 580.911 419.678C582.19 417.759 583.428 416.08 584.627 414.641C585.826 413.201 587.001 412.002 588.152 411.042L574.389 411.042L577.266 402.757L611.217 402.757L607.86 411.042L596.543 411.042C599.9 413.999 603.081 417.033 606.086 420.145C609.091 423.257 611.856 426.408 614.382 429.598C615.82 431.439 617.195 433.254 618.506 435.044C619.816 436.833 621.031 438.623 622.15 440.412C622.086 437.533 621.966 434.882 621.79 432.457C621.615 430.032 621.399 427.776 621.143 425.688C620.887 423.601 620.608 421.656 620.304 419.853C620 418.051 619.673 416.346 619.321 414.738C619.065 413.571 618.993 412.676 619.105 412.054C619.217 411.431 619.449 411.094 619.8 411.042L614.909 411.042L618.362 402.757Z" fill="#165016" opacity="1" stroke="none"/>
</g>
</g>
</svg>
